<?xml version="1.0" encoding="utf-8"?>
<svg xmlns="http://www.w3.org/2000/svg" xmlns:xlink="http://www.w3.org/1999/xlink" width="145px" height="56px" viewBox="0 0 145 56" version="1.1">
    <title>Group 14</title>
    <defs>
        <polygon id="path-1" points="0.171948768 0.193128205 47.878936 0.193128205 47.878936 56 0.171948768 56"/>
    </defs>
    <g id="Symbols" stroke="none" stroke-width="1" fill="none" fill-rule="evenodd">
        <g id="footer-copy" transform="translate(-174.000000, -32.000000)">
            <g id="Group-14" transform="translate(174.000000, 32.000000)">
                <path d="M29,24.4563093 C29,31.5150629 24.8011779,37 14.5001178,37 C3.61484099,37 0,30.9693749 0,22.0001189 C0,13.0308629 3.75830389,7 14.5001178,7 C24.753828,7 28.9528857,12.8187698 28.9528857,19.4961362 L21.203298,19.4961362 C20.730742,15.4896688 18.9667845,13.343296 14.5001178,13.343296 C10.0332155,13.343296 8.09823322,15.9492831 8.09823322,22.0001189 C8.09823322,28.0507169 10.0332155,30.4641082 14.5001178,30.4641082 C18.9667845,30.4641082 20.8209658,28.8056447 21.203298,24.4563093 L29,24.4563093 Z" id="Fill-1" fill="#181818"/>
                <path d="M48.6004883,36 L48.6004883,22.0659571 C48.6004883,18.399155 47.9877001,16.9813282 44.5943384,16.9813282 C41.2009766,16.9813282 40.3052908,18.3501636 40.3052908,22.0659571 L40.3052908,36 L33,36 L33,3.34927728 L40.3052908,3 L40.3052908,13.7057264 C41.1537487,12.2386643 43.4159899,10.6253591 46.6681378,10.6253591 C54.6334447,10.6253591 56,15.5635013 56,22.3591745 L56,36 L48.6004883,36 Z" id="Fill-3" fill="#181818"/>
                <path d="M70.5,16.3976407 C67.4489085,16.3976407 66.0217013,18.2915873 65.7755457,20.8484271 L74.9782987,20.8484271 C74.9782987,18.3389538 73.7480159,16.3976407 70.5,16.3976407 M71.0412948,36 C60.5097967,36 58,29.844733 58,23.5 C58,17.25 60.5590278,11 70.8938488,11 C80.5394344,11 82.9507689,17.3918615 82.9507689,23.7368326 C82.9507689,24.4468543 82.9507689,25.157114 82.8523067,25.8673738 L65.726562,25.8673738 C65.7755457,29.0871068 67.3504463,30.7915873 70.6969244,30.7915873 C73.5021078,30.7915873 74.6831595,29.655267 74.9782987,28.282114 L83,28.282114 C82.5571675,32.7329004 78.6693946,36 71.0412948,36" id="Fill-5" fill="#181818"/>
                <path d="M94.6972054,18.3669023 L94.6972054,37 L87.5657351,37 L87.5657351,18.3669023 L84,18.3669023 L84,12.84745 L87.5657351,12.84745 L87.5657351,10.4091048 C87.5657351,2.8786088 95.0889668,1.82060922 100,4.00151189 L99.2233142,9.89904523 C97.3748113,8.65743386 94.6972054,9.08594179 94.6972054,11.2318593 L94.6972054,12.84745 L100,12.84745 L100,18.3669023 L94.6972054,18.3669023 Z" id="Fill-7" fill="#181818"/>
                <g id="Group-11" transform="translate(97.000000, 0.000000)">
                    <mask id="mask-2" fill="white">
                        <use xlink:href="#path-1"/>
                    </mask>
                    <g id="Clip-10"/>
                    <path d="M21.0330325,4.72123077 C20.0172296,5.52054701 18.4783921,7.13377778 16.7905892,9.85504274 C15.3763626,12.1350085 13.2794956,16.1421197 12.1598897,19.1910085 C15.4744906,15.7214017 18.4568749,10.8460513 19.6325202,8.3808547 C20.4527764,6.66136752 20.8469438,5.48823932 21.0330325,4.72123077 M31.5320276,41.356 C26.1647764,42.8129573 22.129466,45.0828718 19.2993576,47.7830769 C17.0613281,49.9184957 16.875003,51.3043761 17.1353379,51.6408547 C17.6288158,52.2783932 20.0134463,52.5122051 22.8125793,50.6855043 C25.7930719,48.7403419 29.14787,45.0570256 31.5320276,41.356 M18.6597517,56 C16.7565399,56 15.1117714,55.3492991 14.1023527,54.0447863 C13.4067074,53.1456752 11.5354167,49.8323419 16.6567567,44.9459829 C21.0630621,40.7423932 27.295732,38.2573333 33.6951015,36.9915897 C35.6363823,33.3585299 37.0730719,29.9324786 37.7680079,27.8288889 C30.5895251,36.8681026 26.0352,37.1373333 23.8905695,36.4212991 C22.3219389,35.8974359 21.2515153,34.5926838 20.9469635,32.9062222 C17.2076926,36.0644786 12.9787271,38.0228034 9.3756532,35.1397607 C7.30219507,33.4803419 6.56256946,30.8301538 6.62168276,27.8020855 C5.01734778,28.7344615 3.32032315,29.5596239 1.53462857,30.2431111 L0.171948768,26.5964103 C2.79043153,25.5941538 5.17577143,24.2523077 7.31661872,22.7273846 C8.75614581,16.5477607 12.0426089,10.1766838 13.5277714,7.78208547 C16.3756138,3.19080342 20.4877714,-1.11593162 23.4909635,0.564307692 C26.7646581,2.39675214 24.0078502,8.17647863 23.101998,10.0759316 C20.9098404,14.6712821 16.6782739,20.477812 10.7733281,25.0118974 C10.185269,28.2685128 10.3512591,30.9500513 11.7650128,32.0812991 C15.2569537,34.8757949 22.6052099,25.8779829 25.371003,22.4904615 C25.9976039,21.723453 26.492264,21.117265 26.8675153,20.710906 C27.5844414,19.9338462 28.7842049,19.8816752 29.5649734,20.5938803 C30.3450325,21.3058462 30.4176236,22.5194188 29.7278897,23.3216068 C26.3986286,27.1937436 24.7103527,30.0777436 24.7103527,31.8934359 C24.7103527,32.5893675 25.0016631,32.6867692 25.0976631,32.7188376 C25.6370128,32.8990427 26.8329931,32.6755214 28.57187,31.5076581 C30.8510424,29.9772308 33.5019192,27.1915897 36.2379192,23.4517949 C36.9016433,22.5447863 38.6648749,20.1353504 40.7707271,21.1352137 C42.3868847,21.9022222 42.7890916,23.7317949 41.8629044,27.5524786 C41.4491113,29.2592821 40.2018207,32.536 38.2967172,36.4694017 C43.2641261,36.0106325 47.8789833,36.5332991 47.8789833,36.5332991 L47.6815448,40.2048889 C47.6815448,40.2048889 41.0625103,39.7415726 36.3306089,40.4836923 C33.3981163,45.6845128 29.3741557,51.0425641 24.9002246,53.9622222 C22.8201458,55.3196239 20.6050522,56 18.6597517,56" id="Fill-9" fill="#181818" mask="url(#mask-2)"/>
                </g>
                <path d="M142.997668,31.4554287 L142.753358,31.4554287 L142.753358,31.8851739 L142.997668,31.8851739 C143.280298,31.8851739 143.308885,31.7632164 143.308885,31.6751589 C143.308885,31.5823472 143.275432,31.4554287 142.997668,31.4554287 L142.997668,31.4554287 Z M143.251508,33.0230996 L142.753358,32.2221074 L142.753358,33.0230996 L142.183233,33.0230996 L142.183233,30.9963309 L142.978407,30.9963309 C143.778448,30.9963309 143.879213,31.3967237 143.879213,31.6751589 C143.879213,31.8217146 143.812104,32.2221074 143.308885,32.2221074 L143.922196,33.0230996 L143.251508,33.0230996 Z M142.997668,30.5372332 C141.871813,30.5372332 141.608444,31.2113069 141.608444,32.0023771 C141.608444,32.8033693 141.86715,33.4677278 142.997668,33.4677278 C144.128187,33.4677278 144.386892,32.8033693 144.386892,32.0023771 C144.386892,31.2113069 144.128187,30.5372332 142.997668,30.5372332 L142.997668,30.5372332 Z M142.997668,34 C141.368797,34 141,33.0427368 141,31.9976229 C141,30.9669785 141.373663,30 142.997668,30 C144.631203,30 145,30.9669785 145,32.0023771 C145,33.0427368 144.631203,34 142.997668,34 L142.997668,34 Z" id="Fill-12" fill="#181818"/>
            </g>
        </g>
    </g>
</svg>