<?xml version="1.0" encoding="UTF-8"?>
<svg id="Layer_1" data-name="Layer 1" xmlns="http://www.w3.org/2000/svg" version="1.1" viewBox="0 0 188 70.5">
  <defs>
    <style>
      .cls-1 {
        fill: #000;
      }

      .cls-1, .cls-2, .cls-3 {
        stroke-width: 0px;
      }

      .cls-2 {
        fill: #ff6900;
      }

      .cls-3 {
        fill: #fff;
      }
    </style>
  </defs>
  <g>
    <path class="cls-2" d="M31.5,0c20.4,0,36,14,36,34.8s-15.6,35.2-36,35.2H8.6c-4.6,0-8.4-3.1-8.4-8.4V8.7C.2,3.4,4,0,8.6,0h22.9Z"/>
    <path class="cls-1" d="M11.2,70c5.8-3.2,8.7-6.2,10.8-9,3.9,1.7,7.7,2.5,11.1,2.5,6.4,0,11.8-2.9,14.6-8.2,2.9-1.7,4.8-5.3,5-7.9,1.8-2.3,2.1-5.2,1.6-7.1,0-.5-.5-.5-1.2,0-5.7,3.4-11.3,5.1-16.6,5.1s-6.5-.5-10-1.5c-.3-3.8-1-6.9-1.3-8.8-.4-2.5.2-4.4,2.9-4.4s5.8.5,8.8,1.9,4.7,4,6,4,1-.3,1-1.4c0-2.2-.8-5.6-1.7-6.9,2.8-.2,5,0,6.2,0,2.6.5,2.7,1.8,3.2,2.6s1.4,1.2,2.4,1.2c1.9,0,3.1-1,3.1-4.6,0-7.9-5-11.7-10.2-11.7s-5.9.9-10,.9-5.3-5.9-8.6-6.6c-1.4-3.2-4.7-3.6-6.7-2-1.8-1.1-4.7-.5-4.8,1.5-2.1-.6-4.8.5-3.6,3.2-5.1,0-6.1,4.7-2.6,5.2-4.5,2.5-2.4,6.9,1.3,6,.3,3.1,1.5,8.1,1.5,11.6s-2.2,5.9-5.2,5.9-5.8-.9-8.2-1.5v3.4c2.4.6,5.9,1.3,8.6,1.3,4.7,0,7.3-2.8,7.3-8s-2.1-12.3-1.4-16l-.2-.2c-2.3,2.4-3.9,1.8-4,1-.3-1.6,2.4-3.5,4-4.2,0,0,0-.2,0-.3-1.5.2-3.2,0-3.3-1,0-1.2,2.4-2.4,5.7-2.1l.2-.2c-.2,0-.4-.2-.7-.3-.8-.4-1.1-1.2-.8-1.7.3-.6,1.2-.8,2-.8,1.2,0,2.2.3,2.9.6,0,0,.2,0,.2,0-.3-.2-.5-.4-.6-.7-.2-.3-.3-.8,0-1.1.5-.4,1.6-.5,2.7.5l.6.6c0,0,.2,0,.4,0-.2-.3-.3-.5-.4-.8,0-.4,0-.7.5-.9.5-.1,1,.1,1.3.5.3.5.5,1.1.6,1.5-2.3.3-8.4,1.7-8.4,9.1s6,14.8,6,26-.9,8.2-4.6,12.9c-2.9,3.7-7.4,7.2-14.4,10.1,1.2.6,2.6.9,4.1.9h2.7v.2ZM39.4,24.5c.7-2.1,1.3-3.7,2.5-4.9,1.2-1.3,2.5-1.7,5.5-1.7s7.5,4.1,7.5,9.9-1.1.8-1.5,0c-1.4-2.4-3.3-2.8-6.2-3-2.2,0-4.8,0-7.2.2-.5,0-.6-.4-.6-.6ZM26.5,47.6c3.2.9,7.7,1.4,11.4,1.1,6.5-.5,11.4-2.9,14.1-4.6-1.6,4.2-7.8,6.7-13.8,7.5,0,.3,0,.6,0,.9,4.5-.2,8.8-1.7,10.7-3-1.1,4.1-6.6,5.7-11.6,6,0,.3-.3.6-.4.9,2.9,0,5.7-.5,7.3-1-1.5,2.8-6.6,5.1-11.9,5.1s-5.8-.5-8.6-1.8c1.9-3.9,2.7-7.7,2.9-11.1Z"/>
    <path class="cls-1" d="M.2,53.6c2.5-.5,4.9-.9,4.9-.9l.3-1.3c-1.1,0-3.3,0-5.2,0v2.2Z"/>
    <path class="cls-3" d="M26.7,14c.9-.3,2.1.6,2.8,1.9.7,1.3.5,2.6-.4,2.9-.9.3-2.1-.5-2.7-1.9,0-.2-.2-.4-.2-.5h.2c.3.3.6.3.8.2.3-.2.3-.7,0-1.2-.2-.4-.6-.8-1-.7h0c.1-.4.3-.6.6-.7M32.7,27.3c-3.8-.8-8.1-2-10.3-5.3,0,0,0,0-.2,0s0,0,0,.2c0,.2,0,.4,0,.6h-.3c-.6-.7-.7-1.7,0-2.5.8-1,2.6-.9,3.6-.3v.3c-.6,0-1.2,0-1.6.2-.3.2-.4.5-.2.9,1.9,3.5,7.3,4.2,13.7,3.7.7,0,.8-.4.9-.7.6-2.2,1.6-4.2,3.1-5.7-1.2.2-2.3.2-3.2.3-3.3.2-5.2-.2-5.8-.7v-.3c.5,0,.8,0,.9,0s0-.2,0-.4l-3.5-3.5c-.3-2.5-3.9-2.5-5.3,0h-.5c0-.6.4-1.1.6-1.4-3,.7-4.7,3.4-5,6-1.3,11.1,15.6,8.6,20.4,13,0,0,.3.4.5.2,0-.6-2.1-3.1-7.6-4.4"/>
    <path class="cls-3" d="M51.9,44c-2.7,1.8-7.6,4.2-14.1,4.6-3.7.3-8.1-.2-11.4-1.1,0,1.1-.2,2.2-.3,3.3,1.8.5,5,1.1,9.7,1.2-.2,1.3-1.5,5.5-4.7,8.2,5.9.2,11.3-2.1,12.9-5.1-1.7.5-4.4,1.1-7.3,1,.2-.3.3-.6.4-.9,5-.2,10.5-1.9,11.6-6-1.9,1.3-6.2,2.8-10.7,3,0-.3,0-.6,0-.9,6-.5,12.2-3.1,13.8-7.3Z"/>
  </g>
  <g>
    <path class="cls-1" d="M94.1,6.9h-7.3c-1.5,0-2.7,1.1-2.7,2.8v16.8c0,1.7,1.2,2.6,2.7,2.6h7.3c6.5,0,11.5-4.5,11.5-11.1-.1-6.7-5-11.1-11.5-11.1ZM94.1,23.9h-4.6v-11.9h4.6c3.7,0,6.2,2.2,6.2,5.9s-2.5,6-6.2,6ZM119.7,6.7c-6.4,0-11.4,4.8-11.4,11.3s4.9,11.3,11.4,11.3,11.4-4.9,11.4-11.4c0-6.5-4.9-11.2-11.4-11.2ZM119.7,24.2c-3.5,0-6.1-2.6-6.1-6.3s2.5-6.2,6.1-6.2,6.1,2.6,6.1,6.2-2.4,6.3-6.1,6.3ZM144.6,6.9h-7.3c-1.5,0-2.7,1.1-2.7,2.8v16.8c0,1.7,1.2,2.6,2.7,2.6h7.3c6.5,0,11.5-4.5,11.5-11.1s-5-11.1-11.5-11.1ZM144.6,23.9h-4.6v-11.9h4.6c3.7,0,6.2,2.2,6.2,5.9s-2.5,6-6.2,6ZM170.3,6.7c-6.4,0-11.4,4.8-11.4,11.3s4.9,11.3,11.4,11.3,11.4-4.9,11.4-11.4-5-11.2-11.4-11.2ZM170.3,24.2c-3.5,0-6.1-2.6-6.1-6.3s2.5-6.2,6.1-6.2,6.1,2.6,6.1,6.2c0,3.6-2.4,6.3-6.1,6.3Z"/>
    <path class="cls-1" d="M95.7,40.7h-9c-1.5,0-2.6,1-2.6,2.6v17.1c0,1.7,1.2,2.6,2.7,2.6s2.6-1,2.6-2.6v-4h6.2c4.8,0,7.9-3.4,7.9-7.9.1-4.4-2.9-7.8-7.8-7.8ZM95.7,51.4h-6.2v-5.6h6.2c1.8,0,2.7,1.3,2.7,2.8,0,1.6-.9,2.8-2.7,2.8Z"/>
    <path class="cls-1" d="M110.5,40.6c-1.5,0-2.8,1-2.8,2.7v17.2c0,1.7,1.3,2.7,2.8,2.7s2.8-1,2.8-2.7v-17.3c-.1-1.6-1.3-2.6-2.8-2.6Z"/>
    <path class="cls-1" d="M135.7,57.8h-11.2l11-9.9c1.6-1.4,2.2-2.5,2.2-4v-.2c0-1.8-1.1-2.9-3.1-2.9h-14.1c-1.7,0-2.6,1.2-2.6,2.6s1,2.5,2.6,2.5h10.3l-10.6,9.6c-2.1,1.9-2.6,3-2.6,4.3v.3c0,1.8,1.1,2.9,3.1,2.9h14.9c1.7,0,2.6-1.1,2.6-2.6.1-1.5-.8-2.6-2.5-2.6Z"/>
    <path class="cls-1" d="M159,57.8h-11.1l11-9.9c1.6-1.4,2.2-2.5,2.2-4v-.2c0-1.8-1.1-2.9-3.1-2.9h-14.1c-1.7,0-2.6,1.2-2.6,2.6s1,2.5,2.6,2.5h10.3l-10.6,9.6c-2.1,1.9-2.6,3-2.6,4.3v.3c0,1.8,1.1,2.9,3.1,2.9h14.9c1.7,0,2.6-1.1,2.6-2.6,0-1.5-.9-2.6-2.6-2.6Z"/>
    <path class="cls-1" d="M185.9,59.1l-7.3-15.9c-.8-1.8-2-2.5-3.6-2.5h-.3c-1.7,0-2.9.8-3.7,2.5l-7.3,15.9c-.7,1.6-.2,3,1.2,3.5,1.3.5,2.6.2,3.3-1.3l1.6-3.5c1.5.5,3.3.8,5,.8s3.4-.3,4.8-.8l1.6,3.4c.7,1.5,2.1,1.8,3.3,1.3,1.5-.4,2.1-1.9,1.4-3.4ZM174.9,53.9c-1.1,0-2.3,0-3.2-.4l3.1-6.9,3.1,6.9c-.8.2-1.9.4-3,.4Z"/>
  </g>
</svg>