<svg enable-background="new 0 0 133.9470062 133.9470215" height="316.227766" viewBox="0 0 133.9470062 133.9470215" width="316.227766" xmlns="http://www.w3.org/2000/svg"><path d="m66.9840012.0000009c-36.987999-.0059815-66.9789954 29.9740592-66.9840003 66.9630118-.0059967 36.9880371 29.9749985 66.9780273 66.9639969 66.9840088 36.9879913.0050049 66.9770126-29.9749756 66.9830093-66.9639893.0059958-36.987976-29.9750146-66.9769888-66.9630059-66.9830313" fill="#451f58"/><path d="m107.9399033 66.9733276c0-22.625-18.3420105-40.9659424-40.9660034-40.9659424-22.625 0-40.9659958 18.3409424-40.9659958 40.9659424s18.3409958 40.9660034 40.9659958 40.9660034c22.6239929.0000001 40.9660034-18.3410034 40.9660034-40.9660034" fill="#1a0021"/><g fill="#fff"><path d="m66.9731064 109.0534058c-23.2030029 0-42.0800018-18.8769531-42.0800018-42.0799561s18.8769989-42.0800171 42.0800018-42.0800171 42.0800018 18.8770142 42.0800018 42.0800171-18.8770141 42.0799561-42.0800018 42.0799561m0-81.9320069c-21.9740067 0-39.852005 17.8770142-39.852005 39.8520508 0 21.9749756 17.8779984 39.8519897 39.852005 39.8519897 21.9749908 0 39.8529968-17.8770142 39.8529968-39.8519897 0-21.9750366-17.878006-39.8520508-39.8529968-39.8520508"/><path d="m21.9298019 25.5068359c.8649979.7919922.8849945 1.5269775-.1990051 2.7109985-1.0849991 1.1829834-1.8190002 1.2269897-2.6839981.434021-.848999-.7780151-.901001-1.5420532.1839981-2.7250366 1.0839996-1.1840209 1.8499985-1.197998 2.6990051-.4199829m7.6660004 7.1969605c.487999.4470215.9189987.3550415 1.2329941.0120239l.0709991-.0769653c.2140045-.2340088.4410019-.197998.614006-.0390015.4249954.3889771.5499954 2.3659668-.2910004 3.2849731-1.2280045 1.3389893-2.5770035 1.3909912-3.7410049.3250122l-5.8180008-5.3309937c-.2509995-.2310181-.1449966-.8210449.8690033-1.9260254 1.0130005-1.1060181 1.5910034-1.2630005 1.8430023-1.03302z"/><path d="m37.3775024 27.1481934-2.9350052-3.9839478c-.3549957-.4800415-.8590012-.559021-1.3180008-.2210083-.5439987.401001-.8699951 1.4890137-.4779968 2.0209961l3.6940002 5.0139771c.2019958.2750244-.0159988.8330078-1.2229996 1.7230225-1.2080002.8900146-1.8059998.9329834-2.0080032.65802l-4.048996-5.4940186c-.4800034-.6530151-1.1840057-.6110229-1.4250031-.9370117-.3789978-.5150146.4769974-2.84198 1.2089996-3.3809814.3570023-.2630005.6539993-.322998 1.3610001-.0759888.1310043.0359497.2750015.0889893.4319992.1589966.3040009-.8330078.8940048-2.0630493 2.1520004-2.9900513 1.4280014-1.0529785 3.1880035-1.1559448 4.3270035.3880005l3.0110016 4.0870361c.3919983.5319824.8329926.5249634 1.2069931.2489624l.1030046-.0749512c.2539978-.1880493.4529953-.0960083.5919952.0929565.3420029.4630127.0840073 2.4290161-.9189987 3.1680298-1.461998 1.0769654-2.796997.867981-3.7329941-.4020385"/><path d="m42.5835037 24.4049072c-.1840057-.4319458.4139938-2.3109741.822998-2.4849854.2910004-.1239624 2.1139984.4880371 3.4160004-.0669556.4469986-.19104.6489944-.5790405.4809952-.9710083-.5779953-1.3540039-5.4699936 1.1759644-6.784996-1.9039917-.8800049-2.059021.6429977-4.1940298 3.1500015-5.2640371 2.2529984-.9630127 3.8899994-.7340088 4.1079941-.223999.1920013.4509888-.3089981 2.2890015-.7559967 2.4799805-.310997.1330557-1.8030014-.2969971-2.7160034.0930166-.4079971.1740112-.5439987.5570068-.3929977.9100342.6119995 1.4319458 5.4280014-1.2740469 6.8610001 2.0799561.8380051 1.9609985-.4489975 4.1110229-3.0909958 5.2390137-2.3700029 1.0130004-4.9220048.5250244-5.0979997.112976"/><path d="m51.591095 16.4998779c-.6529999-3.7399893 1.7819977-6.0050039 5.0080032-6.5679922 3.2039948-.5599976 6.2630005.7469482 6.9160004 4.4869995.6559906 3.7609854-1.7680054 6.0889883-4.9720001 6.6479483-3.2260056.5640259-6.2960053-.8059692-6.9520035-4.5669556m7.8660049-1.3730459c-.451004-2.5839844-1.530014-2.8719482-2.4260025-2.7159424-.8940048.1559448-1.8330002.7969971-1.3820038 3.3809814.451004 2.5839834 1.5550003 2.8900137 2.4500046 2.7329702.8939972-.1560058 1.8089905-.8129882 1.3580017-3.3980092"/><path d="m77.8915024 18.7807007.6729889-5.0739737c.0680084-.507019-.272995-.8319702-.7339935-.8930054-.7539978-.0999756-1.5550079.4819946-1.6029968.8410034l-.8580017 6.4700308c-.0449982.3379517-.5900116.5879517-2.0770111.3919678-1.4859924-.1970215-1.946991-.5809937-1.9019928-.9190063l.8860016-6.6809683c.072998-.5499878-.3090057-.8800049-.7910004-.9440308-.628006-.0839844-1.4680023.2999878-1.5240021.7230225l-.875 6.5969839c-.0449982.3380127-.5890045.5880127-2.076004.3909912-1.4869995-.1969604-1.947998-.5799561-1.9019928-.9190063l.8970032-6.7649527c.1069946-.8040161-.4290009-1.2620239-.3760071-1.6640015.0839996-.6329956 2.3159943-1.7150269 3.2160034-1.5960083.5240021.0700073.7919922.2990112 1.2339935 1.3039551 0 0 1.5299988-.9369507 3.0590057-.7339478 1.1309967.1489868 2.1069946.664978 2.5529938 1.4779663 1.0200043-.617981 2.6410065-.7910156 3.8760071-.6270142 1.6340027.2160034 3.3300018 1.4089966 3.102005 3.1220093l-.6930084 5.2220449c-.0859985.6549683.2360077.9559937.6970062 1.0169678l.0839996.0109863c.3349915.0450439.4349976.2510376.4039917.4840088-.076004.5709839-1.6239929 1.8070068-2.8600006 1.6430054-1.8009949-.237976-2.6169892-1.3140258-2.4099884-2.8790282"/><path d="m90.0582962 23.2478027 2.1299896-4.4649658c.2579956-.5390015.0899963-1.0209961-.423996-1.2670288-.6100006-.2909546-1.7250061-.065979-2.0090027.5300293l-2.6819916 5.6209717c-.1470032.3080444-.7430115.3780518-2.0960083-.2680054-1.3540039-.6459961-1.6730042-1.1529541-1.526001-1.4609985l2.9389954-6.1589956c.3490143-.730957-.0189972-1.3329468.155014-1.697998.2759857-.5780029 2.7319946-.9179688 3.5509949-.5269775.401001.190979.5930023.4249878.7079926 1.164978.0310059.1329956.052002.2850342.0640106.4550171.8779907-.1240234 2.2409973-.1829834 3.651001.4899902 1.6009979.7650137 2.522995 2.2670279 1.6959991 3.999999l-2.1860046 4.5809937c-.2850037.5970459-.0709991.9819946.348999 1.1820068l.1139984.0549927c.2850037.1370239.298996.3550415.1970062.5670166-.2480011.5189819-2.102005 1.2180176-3.227005.6810303-1.6389922-.7820436-2.0839995-2.0580445-1.4039916-3.4820558"/><path d="m99.4294968 28.2571411c-.3940125.5310059-.2590027.9499512.1139984 1.2279663l.0859985.0620117c.2529907.1890259.2409973.4190063.1009979.6069946-.3439941.4630127-2.2969971.7910156-3.2980042.0480347-1.4589996-1.0830078-1.6499939-2.4210205-.7089996-3.6880493l4.7060089-6.3339844c.2039948-.2739868.8009949-.2290039 2.0049896.6660156 1.20401.8939819 1.4199982 1.4530029 1.2170105 1.7269897zm6.3710022-8.3650513c-.6990051.9420166-1.428009 1.0380249-2.7180023.0800171-1.2880096-.9569702-1.4069977-1.6829834-.7070007-2.6239624.6859894-.9250488 1.4409943-1.0550537 2.7299957-.0980225 1.2879943.9580079 1.3809966 1.7180176.6950073 2.6419678"/><path d="m104.4891891 36.3891602c-.8769989-.2230225-1.7799988-.5380249-2.8439941-1.6830444-1.5079956-1.625-1.6499939-3.6269531-.2900085-4.8889771 1.9530029-1.8140259 3.8080139-.9130249 6.4720001.7639771.7020111.4430542 1.0279999.5440063 1.2310028.3550415.2190094-.2030029.2519989-.6370239-.4089966-1.348999-1.1060028-1.1920166-2.9179993-1.7009888-3.147995-1.9490356-.1580048-.1699829-.1340027-.3639526.0209961-.5089722.2510071-.2330322 1.1170044-.8359985 2.0279999-1.0460205.5010071-.1190186 1.9329987.4530029 3.4420013 2.0780029 2.1990051 2.367981 2.1860046 4.4539795.0919952 6.3989868l-2.6880035 2.4960327c-.4839935.4500122-.4279938.8869629-.1109924 1.2269897l.0289917.0319824c.230011.2470093.20401.5010376.0320129.6610107-.4220123.3920288-2.404007.3580322-3.2510071-.5549927-.5030059-.5419921-.6060028-2.0319823-.6060028-2.0319823m-.243988-2.4250489c.4449921.4800415 1.0139923.5280151 1.2019958.3540039l1.5469971-1.4359741c.0780029-.072998.1119995-.1619873.026001-.2550049-.3590088-.3870239-.8870087-.7039795-1.4230042-.8109741-.5209961-.1220093-1.048996-.0650024-1.423996.2839966-.5630035.5230102-.5169982 1.2299805.0720063 1.8639526"/><path d="m30.670105 109.6292114c2.0099945-3.2659912 5.2139969-3.4609985 7.8159943-1.8589478 1.7460022 1.0749512 2.2600021 2.2339478 2.0340042 2.6009521-.2470016.4020386-1.6750031 1.0400391-2.0240021.8250122-.2450027-.151001-.3720016-1-1.3499985-1.6019897-.8390045-.5159912-2.2740021-.53302-3.5530014 1.5460205-1.151001 1.867981-.5970001 3.315979.7819977 4.1659546 1.3970032.8600464 2.5480042.5570068 2.8440018.7400513.1060028.0639648.1849976.2089844.0770035.3839722-.2040024.3309937-.6920013.8499756-1.2480011 1.2059937-.4290009.2659912-1.951004.1959839-3.3479996-.6640015-2.4980011-1.5379639-3.9440003-4.2349853-2.0299988-7.3430176"/><path d="m40.3523026 115.1483154c1.3359985-3.3969727 4.3209991-4.0959473 7.0130005-3.0369873 2.6709976 1.0499878 4.4000015 3.6019897 3.0639954 7-1.3429947 3.4160156-4.3619995 4.1450195-7.0339966 3.0939941-2.691002-1.0570068-4.3860017-3.6399535-3.0429993-7.0570068m7.050003 2.75c.9229965-2.3469849.3299942-3.5279541-.7580032-3.9559937-1.0879974-.427002-2.3460007.026001-3.2689972 2.3730469-.9230042 2.3469849-.3100052 3.5349731.7770004 3.9639893 1.0879974.427002 2.3269959-.0339966 3.25-2.3810425"/><path d="m52.3574066 119.6739502c.548996-3.6090088 3.3040009-4.9530029 6.1629868-4.519043 2.8380127.4320068 5.0900116 2.5380249 4.5420074 6.1459961-.552002 3.6300049-3.3339996 5.0110474-6.1729965 4.5800171-2.8580017-.4349975-5.0839996-2.5780029-4.5319977-6.2069702m7.4840012 1.1169434c.3789978-2.4939575-.4610138-3.5129395-1.6170044-3.6889648-1.1559982-.1760254-2.2819977.5449829-2.6609955 3.0390015-.3790054 2.4940186.4819946 3.5159912 1.6379929 3.6920166 1.1559982.1749877 2.2609939-.5480348 2.640007-3.0420533"/><path d="m66.402504 125.9880371-1.4490051-13.7059937c-.0279999-.2649536.2129974-.5169678 1.4579926-.6479492 1.2230072-.1300049 1.5319977.0639648 1.5610046.3289795l.7929993 7.5059814c1.298996-.5910034 2.3849945-2.2119751 2.8690033-3.6859741.0780029-.2349854.1450043-.3859863.3889923-.4119873l2.0600128-.2180176c.2249908-.0239868.3579865.0650024.3769989.2479858.0159912.1430054-.0270081.3330078-.1210022.6119995-.4600067 1.3060303-1.3800049 3.1359863-2.5910034 4.1710205.8430023.3649902 1.4889984 1.2039795 2.5789948 2.7379761.4360046.6149902.7190094.7490234 1.2900085.6890259l.4279938-.0450439c.1640015-.0169678.2740021.0540161.2940063.2369995.0469971.4490356-1.1549988 1.9580078-2.1340027 2.0610352-.7949982.0839844-1.3619995-.2059937-1.7709961-.7609863-1.5470123-2.1459961-2.253006-3.1650391-2.701004-3.3030396-.1580048.0580444-.6690063.2969971-.6880035.3200073l.3760071 3.5490112c.026001.2440186-.2340088.5189819-1.4580078.6489868-1.2440034.1320191-1.5350038-.0849608-1.5609895-.330017"/><path d="m78.8371811 111.302063c.2420044 1.1019897-.1669922 1.632019-1.2689972 1.8729858-1.1019897.2410278-1.6949921-.0700073-1.9359894-1.1719971-.2369995-1.0819702.1639862-1.6519775 1.2649994-1.8930054 1.1019898-.2420043 1.7039948.1099854 1.9399872 1.1920167m2.0990143 10.1629639c.1359863.6220093.4879913.7960205.9499969.6950073l.4199982-.09198c.220993-.0479736.3029938.0390015.3379974.1989746.1009979.4609985-.7030029 2.0640259-1.6649933 2.2740479-1.4820099.3249512-2.5610046-.3840332-2.8850098-1.8660278l-1.6539917-7.5529785c-.0559998-.2600098.1749878-.5419922 1.3779907-.8049927 1.2220001-.2680054 1.5310059-.1040039 1.5879974.1560059z"/><path d="m83.509697 118.7356567c-1.2870026-3.8300171.6910095-6.2480469 3.1790009-7.0840454 2.6439972-.8889771 4.3650055-.0830078 4.9069977 1.5310059.8760071 2.6050415-2.1539917 4.7919922-4.446991 5.6270142.8259888 1.0430298 2.0390015 1.0460205 3.1469879.6729736 1.4970093-.5029907 2.0390015-1.6589966 2.3500061-1.7630005.1349945-.0459595.2980042-.0139771.3630066.1800537.1049957.3119507.2039948 1.0569458.1660004 1.7179565-.0180054.4609985-.9810028 1.651001-2.6720123 2.2189941-3.0709993 1.0330201-5.8819886.203003-6.9929963-3.1009521m2.9670105-1.3440551c1.5029907-.6779785 2.6409912-1.9909668 2.1639862-3.4109497-.1829987-.5440063-.7409973-.7890015-1.2659912-.6119995-.9720002.3269653-1.6439972 1.546997-.897995 4.0229492"/><path d="m95.6942978 117.9719849c-.2140045-.3969727.1409912-1.940979.446991-2.105957.3430023-.1849976 1.951004.4609985 3.2680054-.25.6490021-.3519897.7879944-.8699951.5059967-1.3930054-.3699951-.6860352-1.427002-.440979-2.6320038-.2559814-1.470993.2119751-3.1459961.3479614-3.9639893-1.1680298-.9750061-1.8040161-.0390015-3.8250122 2.2339935-5.0529785 2.0209961-1.092041 3.4440002-.7880249 3.6679993-.3730469.2149963.3970337-.0859985 1.9110107-.4470062 2.1060181-.2529907.1370239-1.4089966-.4509888-2.5099945.1439819-.5950012.3210449-.7969971.8970337-.5339966 1.3840332.3410034.6309814 1.1719971.4849854 2.1759949.315979 1.5509949-.2779541 3.5010071-.6789551 4.4860077 1.1420288.9839935 1.8219604.095993 3.8880005-2.0510101 5.0479736-2.1289979 1.1500244-4.4420014.8380127-4.646988.4589844"/><path d="m18.5559998 90.5043945c-1.3500061-2.9750366-2.4810028-6.1760254-3.3619986-9.5140381-1.5470047-5.8619995-1.8800049-10.4749756-1.9459991-11.7689819h.0049973l-.0159988-.2490234c-.1740036-2.7219849-.0530014-5.6619873.3600006-8.7379761.3310013-2.4639893.848999-5.0209961 1.5410004-7.6000366 1.1969976-4.46698 2.4989996-7.4499512 2.5119925-7.4790039.0790024-.1799927.0840073-.3799438.0130005-.5639648-.0709991-.184021-.2099991-.3280029-.3909988-.40802-.3709946-.1619873-.8059998.007019-.9710007.3770142-.0529938.1199951-5.3259954 12.1530151-4.5349951 24.5139771.0779953 1.8790283 1.0650024 18.7460327 11.5370016 32.2109985.1419983.1810303.3529968.28302.5819931.28302.163002 0 .3240051-.0549927.4520035-.1549683.1549988-.1210327.2539978-.2940063.2789993-.4900513.0240021-.1949463-.0289993-.3889771-.1500015-.5439453-2.2739947-2.9240113-4.2630007-6.2470093-5.9099962-9.8750001m-3.0829993-8.4510498c.0130005.0490112.0270004.0960083.0410004.1450195-.0139999-.0490112-.0279999-.0969848-.0410004-.1450195m.7089987 2.342041c.0099945.0319824.0209961.0629883.0319977.0949707-.0110016-.0319824-.0220032-.0639648-.0319977-.0949707m.8289948 2.3829956c.015007.0419922.0310059.0819702.0470047.1239624-.0159989-.0409545-.0319977-.0830078-.0470047-.1239624m.9590072 2.4159546c.0249939.059021.0499954.1170044.0749969.1750488-.0250015-.0580444-.050003-.1170043-.0749969-.1750488"/><path d="m109.4629898 100.3480225c-.1210022.1550293-.173996.3480225-.1490021.5440063.0240021.1950073.1230011.3690186.2779999.4890137.1289978.1010132.2890015.1560059.4519958.1560059.2290039 0 .4400024-.1030273.5820007-.2839966 10.4720001-13.4639893 11.4589996-30.3320313 11.5370026-32.2109985.7910004-12.3599854-4.4819946-24.3939819-4.5350037-24.5130005-.1649933-.3699951-.5999908-.5390015-.970993-.3770142-.1809998.0789795-.3200073.223999-.3899994.4069824-.0720062.1849976-.0670013.3840332.0119934.5640259.0130005.0299683 1.3150024 3.0120239 2.5120087 7.4790039.6920013 2.5789795 1.2099915 5.1369629 1.5410004 7.6010132.4129944 3.0749512.5339966 6.0149536.3600006 8.7369995l-.0160065.25h.0050049c-.0660095 1.2940063-.3990021 5.9060059-1.9459991 11.7689819-.881012 3.3380127-2.0120087 6.5390015-3.3619995 9.5139771-1.6470032 3.6279907-3.6350098 6.9500122-5.9100037 9.875m8.9530029-18.1820069c.0130005-.0479736.0269928-.0959473.0399933-.1439819-.0130005.0480347-.0269928.0960083-.0399933.1439819m-.701004 2.2920532c.0110016-.0320435.0209961-.0630493.0319977-.0950317-.0110016.0319824-.0209961.0629883-.0319977.0950317m-.8439941 2.4129639c.0159912-.0419922.0319977-.0830078.0469971-.1239624-.0149995.0409546-.0310059.0819702-.0469971.1239624m-.9869995 2.46698c.0249939-.0579834.0499878-.1169434.0749969-.1759644-.0250092.059021-.050003.117981-.0749969.1759644"/></g><path d="m65.6283035 50.8817139 1.7339935.6390381c.2109985.0800171.3699951.257019.4279938.4730225l.4550018 1.7909546c.1380005.5530396.8440094.7009888 1.197998.257019l1.1460114-1.4609985c.1369934-.1760254.3539886-.2730103.5820007-.2559814l1.8419952.1199951c.5650024.0339966.923996-.5930176.6109924-1.0610352l-1.0329893-1.5399781c-.1190033-.1820068-.1480103-.4219971-.0630035-.6329956l.6849976-1.7160034c.2109985-.5250244-.2740021-1.0670166-.8220062-.9130249l-1.7839966.5020142c-.2169952.0629883-.4509888.0170288-.621994-.1309814l-1.4199983-1.1749879c-.4340057-.3650513-1.0950012-.0680542-1.1180115.4959717l-.0679932 1.8480225c-.0119934.2219849-.1309967.4279785-.3190002.5529785l-1.5630035.9869995c-.4789887.3020019-.3999939 1.0209961.1310119 1.2199707" fill="#f6f4f7"/><path d="m76.9542007 66.1026001c.1659851.1940308.2229919.4560547.1539917.7020264l-.3309937 1.2369995c-.1650085.6160278.4499969 1.1569824 1.0379944.9130249l1.1860046-.4910278c.2339935-.0969849.5019989-.0679932.7129974.0690308l1.0670013.6949463c.5419922.3480225 1.2429962-.0679932 1.1909943-.7059937l-.095993-1.2729492c-.0180054-.25.0849915-.5010376.2849884-.6610107l.9920044-.7990112c.5019989-.4039917.3190002-1.2030029-.302002-1.3510132l-1.2429962-.3029785c-.2460022-.0620117-.451004-.2390137-.5419922-.4790039l-.451004-1.1849976c-.2279968-.598999-1.0429993-.6730347-1.3800049-.1260376l-.6669922 1.0840454c-.1370087.21698-.3650055.3529663-.6160126.3649902l-1.2779999.0679932c-.6389923.0280151-.9629974.7810059-.5469971 1.2719727z" fill="#f6f4f7"/><path d="m81.0373001 55.0223389 1.2029877.0110474c.1720123 0 .3310089.0859985.4220123.2279663l.6679993.9920044c.2389984.3599854.7869873.2860107.923996-.1239624l.3869934-1.1300049c.052002-.1650391.1829987-.2910156.3480072-.3359985l1.1519928-.3309937c.4170074-.1140137.5140076-.6620483.1710052-.9180298l-.9629974-.7130127c-.1430054-.1029663-.2170105-.2680054-.2109985-.4389648l.0449982-1.1920166c.0119934-.434021-.4730072-.6959839-.8209991-.4450073l-.9810028.6900024c-.1370087.1030273-.3139954.125-.4790039.0690308l-1.1239929-.4110107c-.404007-.1490479-.8040009.2279663-.6720123.6439819l.3530121 1.1409912c.0509949.164978.0179901.34198-.0850067.4790039l-.7420044.940979c-.2679903.3420409-.0280001.8380126.4050138.8439941" fill="#f6f4f7"/><path d="m94.1998062 80.730896c-.8040009 1.5960083-1.7450104 3.1140137-2.8000031 4.5340576-.3769989.5009766-.7700043.9919434-1.1750031 1.4709473-.029007.0339966-.0630035.0680542-.0859985.1020508-5.6000061 6.5529785-13.9199982 10.7109985-23.2210083 10.7109985-16.8519897 0-30.5169907-13.6640015-30.5169907-30.5160522 0-10.6369629 5.4410019-20.0059814 13.6930008-25.4639893.7809982-.5189819 1.5910034-1.0039673 2.4230042-1.447998.0809937-.0440063.159996-.0869751.2409973-.1289673.0469971-.0250244.0930023-.0500488.1419983-.0710449.1230011-.052002.262001-.065979.3840027-.0019531.1039963.0539551.1669998.157959.1719971.2729492.0050049.0900269-.0209961.177002-.0579987.2590332-.1009979.2249756-.2440033.4320068-.3590012.651001-.0709991.1309814-.1389999.2639771-.2060013.3969727-.1269989.2550049-.2480011.5130005-.3619995.7740479-.1179962.2709961-.2289963.5449829-.3359985.8209839-.0199966.0499878-.0390015.0999756-.0579987.151001-.0950012.2489624-.185997.5-.2710037.7529907-.0849991.2520142-.1639938.5059814-.2350006.7630005-.0719986.2550049-.1349945.5120239-.1899948.7719727-.0540009.2590332-.098999.5200195-.1330032.78302-.0339966.2630005-.0569992.5280151-.0660019.7930298-.0019989.0469971-.0039978.0939941-.0049973.1399536-.0230026 1.1010132.2460022 2.2470093.9589996 3.085022.25.2969971.5530014.5479736.8040009.8389893.0569992.0629883.1080017.125.1589966.1940308.3770065.5130005.3650055 1.0999756.2220001 1.6879883-.112999.4959717-.3129959.9979858-.4389954 1.4539795-.5750046 2.1270142.5370026 5.4349976 1.5859985 6.684021.7529984.8950195 2.1269989.9920044 2.9199982 1.9730225.2959976.3699951.5129929.8719482.5759964 1.5969849.0279999.3709717.0570068.7069702.0850067 1.0089722.1599884 2.0300293.2910004 2.6749878 1.9909973 3.8550415 1.0029907.7019653 2.5029907.8549805 4.2649994 1.9899902.052002.0349731.1029968.0689697.147995.1029663.673996.519043.4340057 1.0780029.6390076 1.9960327.0859985.3880005.2509918.8380127.5939941 1.375.2279968.3590088.723999.5750122 1.3399963.7349854 1.1230011.2910156 2.6119995.3540039 3.4670105.6450195 0 0 .9519958.2559814 1.7739868.9119873.0910034.0689697.1760101.1489868.2620087.2279663.5070038.4790039.5809937.901001 1.0319977 1.4370117.7360077.8729858 2.5780029.9070435 2.5780029.9070435.6100006.1029663 2.2980042-.125 3.1649933-.7010498.5019989-.3369751 1.1350098-.3599854 1.7109985-.1259766.678009.2799683 1.2940063.8670044 1.9560089 1.2030029 2.1100006 1.0839844 3.701004 1.3690186 6.3419952.6849976 2.1210022-.5479736 3.3809967-1.6080322 5.1499939-2.8510132.0559998-.0410156.1220093-.0780029.1890106-.0979614.095993-.0280151.2019958-.0030518.2619934.0809937.052002.0739746.0570068.1659546.053009.2539673-.0160065.2940063-.0960083.5969849-.1910095.875-.1559903.4929805-.3439939.9920039-.5759885 1.453979" fill="#d5b789"/><path d="m90.9088974 85.901123c-.2220001.2800293-.4500122.559021-.6840057.8330078-.029007.03302-.0630035.0670166-.0850067.1020508-5.5999908 6.5569458-13.9179993 10.7139893-23.223999 10.7139893-16.8489914 0-30.5159912-13.6669922-30.5159912-30.5170288 0-9.8859863 4.697998-18.6790161 11.9909973-24.2489624-4.0939941 5.1939697-6.534996 11.7459717-6.534996 18.8669434 0 16.8550415 13.6679993 30.5160522 30.5159988 30.5160522 6.9789886 0 13.3999938-2.3370361 18.5370025-6.2660523" fill="#bb9359"/><path d="m74.5811996 86.7921143c0-1.4819946-1.2020111-2.6849976-2.6860046-2.6849976-1.4810028 0-2.6829987 1.2030029-2.6829987 2.6849976 0 1.4820557 1.2019958 2.6860352 2.6829987 2.6860352 1.4839935-.0000001 2.6860046-1.2039796 2.6860046-2.6860352" fill="#451f58"/><path d="m49.4525986 79.5720215c0-1.4859619-1.2050018-2.6919556-2.6920013-2.6919556-1.4860001 0-2.6910019 1.2059937-2.6910019 2.6919556 0 1.4860229 1.2050018 2.6930542 2.6910019 2.6930542 1.4869994 0 2.6920013-1.2070313 2.6920013-2.6930542" fill="#451f58"/><path d="m86.5222092 85.5535278c0-1.1899414-.9650116-2.1549683-2.1560059-2.1549683-1.1889954 0-2.1529999.9650269-2.1529999 2.1549683 0 1.1900024.9640045 2.1560059 2.1529999 2.1560059 1.1909943 0 2.1560059-.9660034 2.1560059-2.1560059" fill="#451f58"/><path d="m63.2405014 87.0452271c0-2.0129395-1.6320038-3.6469727-3.6480103-3.6469727-2.0119934 0-3.6429901 1.6340332-3.6429901 3.6469727 0 2.0130005 1.6309967 3.6480103 3.6429901 3.6480103 2.0160065-.0000001 3.6480103-1.6350099 3.6480103-3.6480103" fill="#451f58"/><path d="m60.612999 75.831543c0-1.315979-1.0680084-2.3839722-2.3840027-2.3839722-1.3180008 0-2.3840027 1.0679932-2.3840027 2.3839722 0 1.3170166 1.0660019 2.3840332 2.3840027 2.3840332 1.3159942 0 2.3840027-1.0670166 2.3840027-2.3840332" fill="#451f58"/><path d="m47.9315033 67.3026123c0-1.8699951-1.5190048-3.3879395-3.3889999-3.3879395-1.8730011 0-3.390007 1.5179443-3.390007 3.3879395 0 1.8720093 1.5170059 3.3890381 3.390007 3.3890381 1.8699951 0 3.3889999-1.5170288 3.3889999-3.3890381" fill="#451f58"/><path d="m47.9961014 54.1651001c0-.9599609-.7780075-1.7379761-1.7380066-1.7379761-.961998 0-1.7389984.7780151-1.7389984 1.7379761 0 .9610596.7770004 1.7390137 1.7389984 1.7390137.9599991 0 1.7380066-.7779541 1.7380066-1.7390137" fill="#451f58"/></svg>