<?xml version="1.0" encoding="UTF-8"?> <svg xmlns="http://www.w3.org/2000/svg" viewBox="0 0 850.67 134.88"><defs><style>.cls-1{fill:#e6b00e;}</style></defs><g id="Layer_2" data-name="Layer 2"><g id="Layer_1-2" data-name="Layer 1"><path class="cls-1" d="M607.63,133.38c-15.88,1.39-31-10.78-37.81-23.51-6-11.38-8.28-23.66-8-42.38.22-13,5.69-33.22,15.74-46.53,8.26-10.76,19-17,31-18h0c17-1.49,30.81,6.52,39.87,23.17,5.86,11.69,8.36,25.52,7.66,42.34-.73,17.36-7,36-16.13,47.49L640,116C630.33,127,620.66,132.24,607.63,133.38ZM609,7.12h0c-10.91,1-20.67,6.66-28.21,16.48-9.49,12.57-14.66,31.65-14.87,44-.3,17.93,1.87,29.59,7.47,40.26,6.13,11.52,19.74,22.55,33.89,21.31,12.07-1,20.67-5.69,29.66-16,8.4-10.67,14.5-28.74,15.18-45,.67-16.05-1.68-29.17-7.17-40.12C636.75,13.05,624.31,5.78,609,7.12Zm-.43,104.34a15.61,15.61,0,0,1-3.27-.07c-8.91-1.14-15.53-9.59-19.13-24.44a70.83,70.83,0,0,1-1.35-22.09A68.37,68.37,0,0,1,590,43.58c6.12-13.67,14.1-20.29,23-19.14S628.54,34,632.14,48.87h0A70.17,70.17,0,0,1,633.49,71a68.31,68.31,0,0,1-5.15,21.29C623,104.22,616.18,110.79,608.56,111.46Zm1.6-82.88c-7.66.67-13.15,9.3-16.52,16.81a63.79,63.79,0,0,0-4.79,19.88A66.16,66.16,0,0,0,590.09,86c2.2,9.06,6.7,20.09,15.66,21.24S621,98.71,624.66,90.43a63.67,63.67,0,0,0,4.79-19.88,66,66,0,0,0-1.24-20.67h0c-2.2-9.06-6.7-20.1-15.66-21.25A12,12,0,0,0,610.16,28.58Z"></path><path class="cls-1" d="M23.92,129.93l-23.19-2A.81.81,0,0,1,0,127L11,1.69A.8.8,0,0,1,11.83,1L51.05,4.4C72,6.23,87.56,25.14,85.69,46.55A38.34,38.34,0,0,1,51,81.65a39.33,39.33,0,0,1-6.69,0L29.07,80.32,24.79,129.2A.81.81,0,0,1,23.92,129.93ZM4.81,124.11l15.75,1.37a.39.39,0,0,0,.43-.36l4.25-48.49a.8.8,0,0,1,.86-.72l18.56,1.62a35,35,0,0,0,6,0A34.2,34.2,0,0,0,81.57,46.19c1.67-19.14-12.18-36-30.88-37.67L15.2,5.41a.41.41,0,0,0-.44.37L4.45,123.67A.4.4,0,0,0,4.81,124.11Zm42.3-61.78h0a23.21,23.21,0,0,1-3.91,0L27.41,61a.81.81,0,0,1-.73-.87L30,22.58a.81.81,0,0,1,.87-.73L46.6,23.24a21.68,21.68,0,0,1,14.22,6.92,18.82,18.82,0,0,1,5,14.45C65,54,57.14,61.45,47.11,62.33Zm-16-5.61a.39.39,0,0,0,.36.43l12.05,1.06a19.12,19.12,0,0,0,3.21,0c8-.7,14.32-6.57,15-14a14.79,14.79,0,0,0-3.94-11.31,17.63,17.63,0,0,0-11.53-5.59L34.19,26.3a.39.39,0,0,0-.43.36Z"></path><path class="cls-1" d="M121.9,132.55,98.51,130.5a.8.8,0,0,1-.73-.86l11-125.34a.8.8,0,0,1,.86-.73L133,5.62a.79.79,0,0,1,.73.86l-11,125.34A.81.81,0,0,1,121.9,132.55Zm-19.31-5.84,16,1.39a.39.39,0,0,0,.43-.36L129.29,9.84a.4.4,0,0,0-.37-.43L113,8a.42.42,0,0,0-.43.37L102.23,126.27A.4.4,0,0,0,102.59,126.71Z"></path><path class="cls-1" d="M222.9,134.76l-76.16-6.66a.74.74,0,0,1-.63-1.18l53.12-98.2a.37.37,0,0,0-.32-.58L163,25a.79.79,0,0,1-.73-.86l1.89-21.61A.8.8,0,0,1,165,1.8L236.2,8a.75.75,0,0,1,.64,1.17L184.5,107.47a.37.37,0,0,0,.32.58l40.1,3.51a.81.81,0,0,1,.73.87L223.76,134A.8.8,0,0,1,222.9,134.76Zm-70.13-10.29,66.76,5.84A.4.4,0,0,0,220,130l1.24-14.16a.41.41,0,0,0-.37-.43l-42-3.68a.74.74,0,0,1-.63-1.17l52.33-98.28a.36.36,0,0,0-.31-.58L168.4,6.24a.41.41,0,0,0-.44.36l-1.24,14.17a.41.41,0,0,0,.37.43l37.85,3.31a.74.74,0,0,1,.63,1.18l-53.12,98.2A.37.37,0,0,0,152.77,124.47Z"></path><path class="cls-1" d="M320.57,134.76l-76.15-6.66a.75.75,0,0,1-.64-1.18l53.12-98.2a.36.36,0,0,0-.32-.58L260.68,25a.79.79,0,0,1-.73-.86l1.89-21.61a.8.8,0,0,1,.87-.72L333.88,8a.74.74,0,0,1,.63,1.17l-52.34,98.28a.37.37,0,0,0,.32.59l40.11,3.5a.8.8,0,0,1,.72.87L321.43,134A.79.79,0,0,1,320.57,134.76Zm-70.13-10.29,66.77,5.84a.39.39,0,0,0,.43-.36l1.24-14.16a.4.4,0,0,0-.36-.43l-42-3.68a.74.74,0,0,1-.63-1.17l52.34-98.27a.38.38,0,0,0-.32-.59L266.07,6.24a.4.4,0,0,0-.43.36L264.4,20.77a.39.39,0,0,0,.36.43l37.85,3.31a.74.74,0,0,1,.63,1.18l-53.11,98.2A.36.36,0,0,0,250.44,124.47Z"></path><path class="cls-1" d="M437.17,134.87l-23.51-2.05a.86.86,0,0,1-.71-.63l-5.81-26.69a.43.43,0,0,0-.36-.32l-32.73-2.86a.44.44,0,0,0-.41.25l-10.16,25.29a.86.86,0,0,1-.81.5l-23.52-2.06a.76.76,0,0,1-.67-1.1L388,3.23a.84.84,0,0,1,.81-.49l20.94,1.83a.86.86,0,0,1,.71.63L438,133.91A.76.76,0,0,1,437.17,134.87Zm-20.41-5.93,15.73,1.37a.38.38,0,0,0,.43-.48L407,8.76a.43.43,0,0,0-.36-.31L391.19,7.1a.42.42,0,0,0-.41.24L344.22,122.07a.38.38,0,0,0,.33.55L360.27,124a.41.41,0,0,0,.41-.25l10.16-25.29a.85.85,0,0,1,.81-.49l38.23,3.34a.86.86,0,0,1,.72.63l5.81,26.69A.43.43,0,0,0,416.76,128.94Zm-10.55-43-28.06-2.46a.75.75,0,0,1-.67-1.09l18-44.71c.53-1.33,1.22-1.27,1.52.14l10,47.16A.76.76,0,0,1,406.21,85.91Zm-22.67-6.14,18,1.58a.37.37,0,0,0,.42-.48l-6.42-30.26c-.15-.7-.49-.73-.76-.07L383.21,79.23A.37.37,0,0,0,383.54,79.77Z"></path><path class="cls-1" d="M547.33,134.75l-26-2.28a.89.89,0,0,1-.65-.46l-24-51.55a.42.42,0,0,0-.33-.23l-9.63-.84a.39.39,0,0,0-.43.36l-4.25,48.49a.79.79,0,0,1-.86.72l-23.2-2a.81.81,0,0,1-.73-.87L468.26.73a.81.81,0,0,1,.87-.73l40.41,3.54a37.5,37.5,0,0,1,25.91,13.75,39.12,39.12,0,0,1,8.72,28.4,38.56,38.56,0,0,1-21.86,31.74.39.39,0,0,0-.19.53l26,55.65C548.44,134.3,548.09,134.81,547.33,134.75Zm-23.47-6.21,17.38,1.52c.38,0,.56-.22.39-.56l-24.9-53.31a.78.78,0,0,1,.43-1.08l1.25-.49a34.45,34.45,0,0,0,21.64-29.29,35.09,35.09,0,0,0-7.79-25.42A33.44,33.44,0,0,0,509.18,7.66L472.49,4.45a.39.39,0,0,0-.43.36l-10.32,117.9a.39.39,0,0,0,.36.43l15.76,1.38a.4.4,0,0,0,.43-.36l4.24-48.49a.81.81,0,0,1,.87-.73l15.5,1.36a.88.88,0,0,1,.66.46l24,51.55A.42.42,0,0,0,523.86,128.54ZM505.6,61.47h0a23.21,23.21,0,0,1-3.91,0l-17-1.49a.8.8,0,0,1-.73-.86l3.28-37.5a.81.81,0,0,1,.87-.73l17,1.48A21.71,21.71,0,0,1,519.3,29.3a18.81,18.81,0,0,1,5,14.45C523.49,53.14,515.62,60.59,505.6,61.47Zm-17.17-5.72a.4.4,0,0,0,.36.44L502,57.35a19.12,19.12,0,0,0,3.21,0c8-.7,14.31-6.57,15-14a14.78,14.78,0,0,0-4-11.31,17.61,17.61,0,0,0-11.52-5.59l-13.24-1.16a.41.41,0,0,0-.43.37Z"></path><path class="cls-1" d="M714.61,133.38l-21-1.83a.86.86,0,0,1-.71-.63L665.38,2.21a.75.75,0,0,1,.85-1L689.74,3.3a.87.87,0,0,1,.72.63l17.4,81.6a.4.4,0,0,0,.76.07l31.3-77.34a.85.85,0,0,1,.81-.49l23.52,2.05a.76.76,0,0,1,.67,1.1l-49.5,122A.86.86,0,0,1,714.61,133.38Zm-17.84-5.71L712.22,129a.43.43,0,0,0,.4-.25L759.19,14.05a.38.38,0,0,0-.34-.55l-15.73-1.38a.43.43,0,0,0-.4.25l-34.6,85.48a1,1,0,0,1-1.9-.17L687,7.5a.45.45,0,0,0-.36-.32L670.91,5.81a.37.37,0,0,0-.42.48l25.93,121.06A.41.41,0,0,0,696.77,127.67Z"></path><path class="cls-1" d="M849.79,134.87l-23.5-2.05a.86.86,0,0,1-.72-.63l-5.81-26.69a.43.43,0,0,0-.35-.32l-32.74-2.86a.41.41,0,0,0-.4.25l-10.16,25.29a.89.89,0,0,1-.82.5l-23.51-2.06a.75.75,0,0,1-.67-1.1l49.5-122a.85.85,0,0,1,.81-.49l20.94,1.83a.86.86,0,0,1,.72.63l27.56,128.71A.75.75,0,0,1,849.79,134.87Zm-20.4-5.93,15.72,1.37a.38.38,0,0,0,.43-.48L819.61,8.76a.41.41,0,0,0-.36-.31L803.81,7.1a.4.4,0,0,0-.4.24L756.84,122.07a.38.38,0,0,0,.34.55L772.9,124a.4.4,0,0,0,.4-.25l10.16-25.29a.86.86,0,0,1,.82-.49l38.23,3.34a.86.86,0,0,1,.71.63L829,128.62A.43.43,0,0,0,829.39,128.94Zm-10.56-43-28.05-2.46a.75.75,0,0,1-.67-1.09l17.79-44.1a1,1,0,0,1,1.91.17L819.68,85A.76.76,0,0,1,818.83,85.91Zm-22.67-6.14,18,1.58a.38.38,0,0,0,.43-.48l-6.42-30.26c-.15-.7-.49-.73-.76-.07L795.83,79.23A.37.37,0,0,0,796.16,79.77Z"></path></g></g></svg> 