<svg width="117" height="49" viewBox="0 0 117 49" fill="none" xmlns="http://www.w3.org/2000/svg">
<path fill-rule="evenodd" clip-rule="evenodd" d="M103.414 18.8149C103.414 27.6586 96.6589 34.8278 88.3254 34.8278C84.968 34.8278 81.8667 33.6642 79.3601 31.6962L80.9028 48.2382L72.7017 49L68.6406 5.45239L75.3368 4.83036L76.3615 9.05586C79.1202 5.25268 83.4531 2.802 88.3254 2.802C96.6589 2.802 103.414 9.97122 103.414 18.8149ZM86.6064 27.9652C91.4588 27.9652 95.3924 24.0392 95.3924 19.1962C95.3924 14.3532 91.4588 10.4272 86.6064 10.4272C81.754 10.4272 77.8203 14.3532 77.8203 19.1962C77.8203 24.0392 81.754 27.9652 86.6064 27.9652Z" fill="#F9365E"/>
<path fill-rule="evenodd" clip-rule="evenodd" d="M66.3563 21.813C66.3567 21.7669 66.3569 21.7206 66.3569 21.6744C66.3569 12.7254 59.0882 5.47083 50.1218 5.47083C41.1554 5.47083 33.8867 12.7254 33.8867 21.6744C33.8867 30.6233 41.1554 37.8779 50.1218 37.8779C57.9219 37.8779 64.4373 32.3878 66.0002 25.0681L58.0151 26.3763C56.7235 29.0113 54.3096 30.9319 51.3497 31.319C47.4362 31.8307 43.7529 29.5066 42.0759 25.8336L54.9895 23.7181L54.9826 23.6763L66.3563 21.813ZM48.8187 12.0395C52.733 11.5276 56.4168 13.8526 58.0935 17.5268L41.1938 20.2952C41.6678 16.0526 44.7197 12.5755 48.8187 12.0395Z" fill="#FF781E"/>
<path fill-rule="evenodd" clip-rule="evenodd" d="M26.4388 2.99262L35.0385 2.42169L19.9498 46.6478L19.9454 46.6459L19.9454 46.6468L8.38122 47.5106L7.89669 39.9313L13.8296 39.5535L15.749 33.9881L0 6.07333L8.86737 5.28009L19.0679 24.3647L26.4388 2.99262Z" fill="#FFAD01"/>
<path fill-rule="evenodd" clip-rule="evenodd" d="M117 0.265545L107.473 0L107.176 10.6178L107.424 25.825L114.491 26.022L116.817 6.80524L117 0.265545ZM110.48 40.928C113.54 40.928 116.019 38.4529 116.019 35.3997C116.019 32.3465 113.54 29.8715 110.48 29.8715C107.421 29.8715 104.941 32.3465 104.941 35.3997C104.941 38.4529 107.421 40.928 110.48 40.928Z" fill="#D2178C"/>
</svg>
