<?xml version="1.0" encoding="UTF-8"?>
<svg xmlns="http://www.w3.org/2000/svg" viewBox="0 0 150.28 29.45">
  <defs>
    <style>
      .cls-1 {
        fill: #182da8;
      }
    </style>
  </defs>
  <g id="_0" data-name="0">
    <path class="cls-1" d="M0,18.29c0-5.45,3.62-9.09,8.77-9.09,2.58,0,4.72.92,6.24,2.5V3h3.62v24.05h-3.62v-2.14c-1.59,1.55-3.71,2.48-6.27,2.48-5.11,0-8.73-3.64-8.73-9.09ZM9.16,23.98c3.37,0,5.62-2.29,5.62-5.69s-2.22-5.69-5.57-5.69-5.59,2.29-5.59,5.69,2.22,5.69,5.54,5.69ZM22.78,9.54h3.62v2.17c1.44-1.45,3.35-2.17,6.03-2.17h1.52v3.69h-1.52c-4.27,0-6.03,1.57-6.03,5.38v8.49h-3.62V9.54ZM38.67,2.47c1.38,0,2.51,1.13,2.51,2.5s-1.13,2.51-2.51,2.51-2.5-1.13-2.5-2.51,1.11-2.5,2.5-2.5ZM36.86,9.54h3.64v17.5h-3.64V9.54ZM44.66,9.54h3.69v2.17c1.21-1.5,3.25-2.51,5.54-2.51,4.19,0,6.58,2.67,6.58,7.31v10.53h-3.62v-10.08c0-2.94-1.33-4.38-4.07-4.38s-4.49,1.67-4.49,4.19v10.34h-3.62V9.54ZM64.62,3h3.64v13.62h1.62l6.36-7.08h4.51l-7.79,8.75,8.27,8.75h-4.82l-6.53-7.04h-1.62v7.04h-3.64V3ZM85.53,2.47c1.38,0,2.51,1.13,2.51,2.5s-1.13,2.51-2.51,2.51-2.5-1.13-2.5-2.51,1.11-2.5,2.5-2.5ZM83.72,9.54h3.64v17.5h-3.64V9.54ZM90.27,9.54h4.27v-5.23h3.52v5.23h6.46v3.38h-6.36v6.8c0,3.13,1.08,4,4.31,4h2.05v3.38h-2.24c-5.83,0-7.74-1.83-7.74-7.11v-7.08h-4.27v-3.38Z"/>
  </g>
  <g id="F">
    <path class="cls-1" d="M120.84,28.54c0-1.67,2.22-5.32,4.89-8.51-1.2-1.52-1.95-3.71-1.95-6.14,0-5.73,4.22-8.7,3.44-8.7-.92,0-3.4,4.85-5.59,4.85-.56,0-.79-.32-.79-.92,0-2.97,5.5-9.13,8.31-9.13.6,0,.8.27.8.7,0,1.08-1.35,3.09-2.51,4.26h.08c2.97-3.02,5.78-4.96,7.16-4.96.46,0,.68.22.68.62,0,2-5.74,9.43-8.19,9.43-.29,0-.43-.1-.43-.29,0-.94,3.26-3.95,3.26-4.48,0-.05-.04-.09-.12-.09-.85,0-5.37,5.37-5.37,7.33,0,.43.22.7.77.7,4.36,0,11.98-13.23,19.6-13.23,3.95,0,5.38,3.57,5.38,6.73,0,2.24-.72,5.71-.72,6.65,0,.5.21.77.72,1.01-1.21,1.78-3.31,2.91-5.21,2.91-.74,0-1.42-.15-2.07-.51h-.09c.8,1.11,2.08,1.74,3.35,1.74.8,0,1.59-.26,2.22-.8l.03.03c-1.25,2.7-3.5,5.09-6.72,6.34.33,1.06.72,2.8.72,4.05,0,.77-.15,1.3-.65,1.3-1.06,0-3.33-2.49-4-3.59.96-.34,1.98-.8,2.55-1.15v-.08c-1.25.31-2.58.48-3.95.48-2.1,0-4.24-.39-6.02-1.25.91-1.4,1.59-3.13,1.95-4.56h-.09c-2.75,4.43-7.91,10.15-10.6,10.15-.56,0-.89-.26-.89-.91ZM141.65,15.67c.48,0,.82-.36.82-.82s-.36-.84-.82-.84-.84.36-.84.84.36.82.84.82Z"/>
  </g>
</svg>