<?xml version="1.0" encoding="UTF-8"?>
<svg id="logo" xmlns="http://www.w3.org/2000/svg" version="1.1" viewBox="0 0 778.2 188">
  <defs>
    <style>
      .cls-1 {
        fill: #4886f3;
        stroke-width: 0px;
      }
    </style>
  </defs>
  <path class="cls-1" d="M466,2.8c-3.4,3.1-6.1,5.7-8.9,8.2-3,2.6-5.9,5.1-3.5,9.2,4.6,1.6,9.2,2.9,13.5,4.8,1.6.7,2.7,2.4,4.2,3.6.5.4,1.3.6,2,.7.8,0,1.7-.3,2.5-.2,5.9,1.4,11.8,2.8,18,4.3v3.8c2.4-.3,4.7-.6,7-.9.2.3.4.7.5,1-2.2,1.5-4.4,2.9-6.2,4.1,2.4.5,4.7,1,7,1.5.4,0,.9.3,1.1.1,3.8-2.2,7.6-4.4,11.3-6.7,2-1.3,3.9-2.7,5.7-4.5-6.4.8-11.5,6-18.1,6.3-.2-.3-.4-.6-.5-.9,1.7-1.1,3.3-2.5,5.1-3.4,5.7-2.7,11.6-5,17.3-7.7,3.4-1.7,6.6-3.8,10.4-5.4-.5,5-4.9,7.6-7.3,11.3-2.6,4-5.8,7.5-9,11.5,5.9,6.7,12.1,13.7,18.3,20.6-.2.4-.5.7-.7,1.1-4.4-2.2-8.7-4.7-13.3-6.7-3.3-1.5-6.8-2.6-10.3-3.7-5.7-1.7-11.4-3.9-17.3-4.7-3.8-.5-7.8,1.2-11.9,2,1.7,5.2,1.7,5.1-2.7,6.9-8.6,3.7-17.2,7.4-25.8,11.2-3.6,1.6-6.4,4.1-5.6,8.6-6.2.9-11.2-1.6-10.9-4.2-9.5-4.8-19.4-2.5-29.8-2.5,1.5,2.2,2.8,4,4.3,6.3-7.8,1.2-14.9.8-20.8-4-4.8-3.9-10.4-3.7-15.8-4.9-3.8-.8-7.6-2-11.5-2.8-1.4-.3-3,.3-4.2-.2-7.1-2.8-14.1-5.7-21.1-8.6-.3-.1-.5-.4-.8-.7-4.4-3.4-4.3-5.7.2-8.8,0-.2,0-.5-.2-.6-6.8-2.9-4.8-6.8-.1-9.7,4.7-2.9,9-6.4,13.4-9.5,14.2-10,30-14.9,47.3-15.4,6-.2,12.1-.5,17.9.3,4,.5,6.8-.3,10.3-2,6.9-3.5,14.1-6.2,22.1-7.4,4.6-.7,9.1-2.1,13.9-1.7.5,0,1.1.2,2.5.4ZM395.1,21.2c-1.3.6-2.5,1.4-3.9,1.6-10.4,1.8-20,5.8-29.2,10.8-1.2.6-2.6,1-4.3,1.6,0,.4-.1,1.4-.2,2.5.7-.1,1.1-.1,1.6-.3,20.2-5.8,40.7-8.5,61.6-5.4,12,1.8,23.8,5.5,35.8,7.8,5.7,1.1,11.6,1.2,17.5,1.4,2.5,0,4.9-1,7.4-1.5-5-1.4-9.8-2-14.3-3.4-7.6-2.4-14.9-5.5-22.4-8.3-15.1-5.5-30.6-8.6-46.8-6.1-.9.1-1.9-.5-2.7-.7ZM2.2,59.5h6.3V26.7H2.2v-5h18.8v5h-6.3v32.8h6.3v5H2.2v-5ZM37.4,63.1v-10h5.6v6.1c2.1.6,5.3,1.1,8.7,1.1,5.9,0,10.1-2,10.1-6.5,0-11-23.7-5.8-23.7-21.2s6.3-11.8,15.3-11.8,9.6,1,13.1,2.2v9.8h-5.7v-6.2c-1.8-.4-4.6-.8-7.2-.8-5.8,0-9.6,2.2-9.6,6.3,0,10.3,23.7,5.5,23.7,21.4s-6.9,11.9-15.7,11.9c-5.2,0-10.7-1.1-14.7-2.2ZM83.9,59.5h6.3V26.7h-6.3v-5h19.7v5h-7.2v32.8h16.6v-7.7h5.8v12.6h-34.8v-5ZM130.4,59.5h5.5l13.3-32.8h-6.1v-5h15l15.3,37.8h5.5v5h-18.3v-5h6.4l-3.3-8.2h-18.5l-3.2,8.2h6.3v5h-17.9v-5ZM161.8,46.3l-7.3-18.6-7.3,18.6h14.6ZM191.6,59.5h6.3V26.7h-6.3v-5h12.6l23.1,32.8v-27.8h-6.3v-5h18.4v5h-6.3v37.8h-5.5l-24-33.8v28.8h6.3v5h-18.4v-5ZM254.7,59.5h6.3V26.7h-6.3v-5h19.8c13.9,0,22.7,7.9,22.7,21.4s-8.8,21.4-22.7,21.4h-19.8v-5ZM274.5,59.5c10.5,0,16.4-6,16.4-16.4s-5.9-16.4-16.4-16.4h-7.3v32.8s7.3,0,7.3,0ZM572.6,59.5h6.3V26.7h-6.3v-5h19.4c10.3,0,17.1,5.3,17.1,13.6s-6.7,13.6-17.1,13.6h-6.9v10.7h7.6v5h-20.1v-5h0ZM585.1,43.8h7c7.6,0,10.7-3.8,10.7-8.6s-3.1-8.6-10.7-8.6h-7v17.1ZM623.9,43.1c0-12.9,8.9-22.3,22-22.3s22,9.3,22,22.3-8.9,22.2-22,22.2c-13.1,0-22-9.3-22-22.2ZM661.6,43.1c0-10.4-6.5-17.1-15.7-17.1s-15.6,6.7-15.6,17.1,6.4,17,15.6,17,15.7-6.7,15.7-17ZM683.1,59.5h6.3V26.7h-6.3v-5h18.6v5h-6.1v32.8h6.7v5h-19.2v-5ZM698.4,43.3v-.4l15.5-16.2h-5.5v-4.9h18v5h-5.4l-15.1,16,14.7,16.8h6.5v5h-10.3l-18.3-21.2ZM741.1,59.5h6.3V26.7h-6.3v-5h34.6v12h-5.7v-7h-16.4v13.8h17.7v5h-17.7v14.1h16.6v-7.2h5.8v12.2h-34.8v-5h0ZM753.8,15.2l11.3-11.2,4.1,5.1-13.4,8.6-2-2.5Z"/>
  <g>
    <path class="cls-1" d="M165.8,151.5c0,.3,0,.5-.1.7,0,.2-.2.2-.5.2s-.6-.3-.8-.8c-.7-1.7-1.1-2.6-1.2-2.8-.4-.4-1.4-.7-3-1-1.6-.2-3.3-.4-5.1-.4s-1.9,0-2.6.1c-.7,0-1.1.2-1.3.4-.4.3-.7,1.3-1,3-.3,1.7-.5,3-.5,4v3.2c0,.3,0,.5.2.6.1.2.3.2.5.2h4.3c.9,0,1.9-.3,2.7-.9.4-.2.8-.8,1.4-1.8.5-.8.9-1.2,1.1-1.2s.2,0,.3.2.2.3.2.5,0,.3,0,.6l-.8,7.7c0,.4,0,.7,0,.8,0,.2-.2.3-.4.3-.4,0-.7-.5-1-1.6-.3-1.1-.7-1.7-1.1-2.1-.9-.6-1.9-.9-3.1-.9h-3c-.6,0-1.1.3-1.5.8-.4.5-.7,1.5-.8,2.9-.2,1.4-.3,3-.3,4.8v1.5c0,.3,0,.6,0,.8s.2.5.4.7.4.4.7.6c0,0,.4.2.9.4.2,0,.5.2,1,.2s.7.1.9.2c.2,0,.3.1.4.2.2.1.3.3.3.6s-.2.6-.5.7c-.4.1-.9.2-1.5.2s-1,0-2-.1c-1,0-1.6-.1-2-.1s-1.4,0-2.7,0c-1.3,0-2,0-2,0-1.3,0-2-.1-2.2-.4,0-.1-.1-.2-.1-.4,0-.2.1-.4.4-.6.3-.2.7-.3,1.2-.5.5-.2.9-.6,1.3-1.4.3-.6.4-1.3.5-2l2.3-20.1c0-.1,0-.3,0-.6,0-.5-.2-1-.5-1.3-.3-.3-.9-.6-1.8-.9-.4-.1-.9-.2-1.3-.4-.4-.1-.5-.3-.5-.5,0-.3.2-.5.7-.5s1-.1,1.5-.1,1.5,0,2.7,0,1.9,0,2.1,0h11.6c.8,0,1.5,0,2.3,0,.7,0,1.5,0,2.2-.1.6,0,1,0,1.1,0,.1,0,.2.2.2.5v5.3h0Z"/>
    <path class="cls-1" d="M182.8,158.9l-.7,2.5c0,.4-.3.6-.6.6s-.2,0-.4-.1c-.1,0-.2-.2-.3-.3-.8-1-1.2-1.5-1.3-1.5-.3-.3-.5-.4-.7-.4-.7,0-1.3.7-1.9,2.2-.5,1.2-.9,2.6-1.2,4.3l-1.4,8.4c0,.2,0,.3-.2.5-.1.1-.2.2-.3.2h-3.7c0,0-.2,0-.2,0,0,0-.1-.1-.1-.1,0,0,0-.1,0-.2v-.3l1.5-9.7c0-.4.1-.9.1-1.3,0-.8,0-1.4-.3-2-.2-.5-.5-.8-1-.9-.5,0-1.1.5-1.7,1.7-.3.6-.5.8-.8.7-.4-.2-.5-.5-.5-.9s0-.7.2-1.1c.2-.4.3-.8.5-1.2.5-1,1.2-1.7,2-2.3.8-.6,1.6-.9,2.5-.9s1,.3,1.4.9c.2.4.4,1,.6,1.8l.4,2.2.8-1.3c.4-.7,1.1-1.4,2-2.1,1.3-1,2.5-1.5,3.7-1.5s1,.1,1.3.4c.2.3.4.6.4,1,0,.3,0,.5-.1.7Z"/>
    <path class="cls-1" d="M200.3,160.5c0,1-.6,2.1-1.7,3-1,.9-2.2,1.5-3.7,2-2.6.9-4.6,1.3-5.8,1.3v1c0,1.6.4,2.9,1.3,3.7.9.8,2.1,1.3,3.6,1.3s1.9-.2,2.7-.5c.8-.4,1.6-.9,2.2-1.6.3-.3.6-.4.9-.2.2,0,.2.3.2.5s0,.2-.1.3c-.7,1.1-1.9,2.1-3.5,2.9-1.6.8-3.2,1.2-4.7,1.2-2.5,0-4.3-.6-5.6-1.7-1.3-1.1-1.9-2.7-1.9-4.7s.2-2.6.6-3.8c.5-1.5,1.2-2.8,2.2-4,1.1-1.3,2.3-2.3,3.8-3,1.6-.8,3.3-1.2,5.2-1.2s2.6.4,3.3,1.1c.6.6.9,1.4.9,2.3ZM196.2,160.6c0-.5-.1-1-.4-1.3-.3-.4-.8-.6-1.4-.6s-1.2.2-1.9.5c-.6.3-1.1.8-1.5,1.4-.4.6-.8,1.4-1.1,2.3-.5,1.4-.7,2.3-.6,2.7h.5c.7,0,1.5-.2,2.4-.5,1.2-.4,2.1-1,2.8-1.8.4-.4.6-.8.8-1.2.2-.5.3-1,.3-1.5Z"/>
    <path class="cls-1" d="M216.4,158.9c.1.2.2.5.2.7,0,.5-.2.9-.5,1.3-.3.4-.7.6-1.2.6s-.8-.1-1.2-.4c-.2-.2-.5-.6-.9-1.4-.4-.8-.8-1.2-1.2-1.4-.4-.2-.8-.2-1.1-.2-.6,0-1,.2-1.4.5-.4.3-.5.8-.5,1.5s0,.5,0,.7c0,.2.2.5.4.8.2.2.5.4.9.7l3,2.3c.4.3.7.6,1,.8.3.3.5.6.7.9.4.6.6,1.2.8,1.8.2.6.3,1.2.3,1.8s-.1,1.4-.4,2c-.3.6-.7,1.2-1.3,1.7-.8.7-1.6,1.2-2.5,1.5s-1.9.4-3.1.4-2.9-.3-4-.9c-1.3-.7-2-1.7-2-2.9,0-.6.3-1.1.6-1.4.4-.3.8-.5,1.3-.5s1.1.2,1.3.6c.1.2.4.8.7,1.8.5,1.4,1.3,2.1,2.3,2.1s1.8-.3,2.4-.8c.6-.5.9-1.2.9-2s-.2-1.1-.5-1.7c-.3-.6-.8-1.1-1.3-1.6l-3.4-2.8c-1.3-1.1-2-2.3-2-3.7s.4-2.1,1.2-3c.8-.9,1.9-1.5,3.2-1.8.8-.2,1.6-.3,2.3-.3,1.1,0,2.1.2,3,.5.9.4,1.5.9,1.8,1.6Z"/>
    <path class="cls-1" d="M240.9,170.1c.2.2.4.4.4.6s0,.5-.3.8c-.2.3-.4.6-.5.9-.5.9-1.3,1.6-2.3,2.2-1,.6-2.1,1-3.1,1s-1.9-.4-2.4-1.2c-.4-.6-.6-1.5-.6-2.7s0-.7,0-.9l.6-6.6c0-.3,0-.6.1-.8,0-.3,0-.6,0-.9,0-.9-.2-1.6-.7-1.9s-1-.5-1.8-.5c-1.1,0-2.1.7-3.2,2-1,1.3-1.7,2.8-1.9,4.4l-1.2,7.9c0,.3-.1.5-.4.7-.1.1-.4.2-.6.2h-2.6c-.3,0-.5,0-.6-.2-.1-.1-.2-.3-.2-.5v-.4l3.4-25.9c0-.1,0-.3,0-.5s0-.4-.1-.7c0-.3-.5-.4-1.2-.4-.4,0-.7,0-.9,0-.4,0-.7,0-.9-.1-.2,0-.3-.2-.3-.5,0-.5.5-.8,1.5-.9.8,0,1.7-.2,2.5-.2.9-.1,1.6-.3,2.1-.4.9-.2,1.5-.2,1.7-.2s.3,0,.4.1c.2.2.2.4.2.8l-2.3,16.5c.8-1.1,1.5-1.9,2.1-2.4,1.7-1.6,3.5-2.4,5.2-2.4s2.3.4,3.1,1.3c.7.8,1.1,1.7,1.1,2.8l-.4,6.8c0,.2,0,.5,0,1.1,0,.6,0,.9,0,1,0,.7,0,1.2.2,1.6.1.4.3.6.7.6s1.1-.5,2.2-1.6c.4-.4.8-.6,1-.4Z"/>
    <path class="cls-1" d="M321.5,153.5c0,3.2-1.3,5.6-3.9,7-1.9,1.1-4.3,1.7-7.1,1.7s-2.3,0-2.8-.3-.9-.4-1.1-.6c-.2-.2-.3-.4-.2-.6,0-.2.2-.3.5-.3.4,0,.7,0,.9,0h1c2.2,0,3.9-.4,5.1-1.4,1.3-1,1.9-2.5,1.9-4.4s-.6-3.9-1.7-5.4-2.6-2.3-4.5-2.3-1.1,0-1.5.1c-.4,0-.7.2-1.1.5-.7.5-1.1,1.5-1.3,2.8l-2.2,19.2c0,.1,0,.3,0,.4v.4c0,.9.2,1.6.6,2.1.5.6,1.3,1,2.3,1.2,1.1.2,1.6.4,1.6.9s-.2.6-.6.7c-.4.1-1,.2-1.6.2s-1.3,0-2.5-.1c-1.2,0-2-.1-2.5-.1s-1.4,0-2.1,0c-.7,0-1.4,0-2.1,0-.6,0-1,0-1.3,0-.3,0-.4-.1-.5-.2s-.1-.2-.1-.4c0-.2.2-.4.5-.6.3-.2.7-.4,1.2-.5.5-.1.9-.6,1.3-1.3.3-.6.5-1.2.6-1.8l2.3-19.7c0-.2,0-.4,0-.7,0-.9-.2-1.5-.7-2-.5-.5-1.1-.8-1.8-1-.3,0-.6-.1-1-.2-.5-.2-.8-.4-.8-.6s.2-.6.6-.7c.4-.1,1-.2,1.8-.2s1.4,0,3.2.2c.7,0,1.3,0,1.9,0,.9,0,1.5,0,2.1,0,2.1-.1,3.2-.2,3.3-.2,3.9,0,6.8.6,8.9,1.8,2.3,1.4,3.4,3.5,3.4,6.3Z"/>
    <path class="cls-1" d="M340.8,170c.2,0,.4.3.4.5s0,.5-.2.9c0,0-.2.4-.5,1-.5.9-1.3,1.6-2.2,2.2-.9.6-1.9.9-2.8.9s-1.4-.4-2-1.2c-.6-.8-.9-1.6-.9-2.5-1,1.2-2,2-2.9,2.6-1.3.8-2.6,1.1-3.9,1.1s-2.8-.6-3.6-1.8c-.9-1.2-1.3-2.7-1.3-4.5s.3-2.6.9-4c.6-1.4,1.3-2.9,2.3-4.3.9-1.2,1.9-2.1,3-2.7,1.2-.7,2.5-1.1,3.9-1.1h.6c.2,0,.5,0,.9.1.4,0,.9.3,1.5.6.6.3,1.1.5,1.4.5s.5,0,.8-.2.5-.4.7-.7l1-1.2c.2-.2.4-.4.6-.6.2-.2.4-.2.5-.1.2,0,.2.3.2.6,0,.2,0,.4,0,.5l-1.9,11.1c0,.2-.1.6-.2,1.1,0,.5-.1.9-.1,1.4s0,1,.2,1.4c.2.4.4.6.9.6.5,0,1.1-.3,1.6-1,.6-.8,1-1.1,1.2-1ZM334,160.6c0-1.6-.8-2.4-2.5-2.4s-1.6.3-2.4.9c-.6.5-1.2,1.2-1.8,2.2-.6,1-1,2-1.3,3.1s-.5,2.3-.5,3.5.2,2.8.7,3.5c.5.7,1.3,1.1,2.4,1.1s2.2-.7,2.8-2c.7-1.6,1.3-3.2,1.8-5.1.5-1.8.8-3.4.8-4.8Z"/>
    <path class="cls-1" d="M360.2,160.2c0,.5-.2,1-.6,1.4-.4.4-.9.6-1.4.6s-.8,0-1.1-.3c-.3-.2-.6-.5-.8-.8-.6-1-1.2-1.8-1.7-2.1-.5-.4-1-.6-1.6-.6-1.3,0-2.4.7-3.2,2.2-.9,1.5-1.3,3.3-1.3,5.6s.5,3.6,1.4,4.9c.9,1.3,2.3,1.9,4,1.9s3-.7,4.1-2.2c0-.1.2-.2.4-.3.2,0,.3,0,.4,0,.2,0,.2.2.2.5s0,.2-.1.3c-.7,1.2-1.7,2.1-3.1,2.9-1.4.8-2.8,1.2-4.2,1.2-2.4,0-4.2-.6-5.6-1.8-1.4-1.2-2.1-2.8-2.1-5,0-3.1,1-5.8,2.9-8,2.1-2.4,4.8-3.6,7.9-3.6s3.2.4,4.1,1.1c.8.6,1.2,1.3,1.2,2.2Z"/>
    <path class="cls-1" d="M373,169.5c.1,0,.2.2.2.4,0,.3-.2.8-.5,1.4-.4.6-.8,1.2-1.2,1.7-.7.7-1.5,1.3-2.4,1.7-.9.4-1.8.6-2.6.6s-.9,0-1.3-.3c-.5-.3-.8-.7-1-1.4-.2-.7-.3-1.5-.3-2.4s0-1,0-1.3,0-.5,0-.6l1.7-8.9c0-.3,0-.6,0-.7s0-.3,0-.4c-.1-.3-.6-.5-1.5-.7-.9-.1-1.3-.4-1.3-.8s.5-.7,1.6-.8c.9,0,1.8,0,2.7-.1.5,0,1.2-.2,1.9-.3.7,0,1.2-.1,1.4-.1s.4,0,.5.1c.1.1.2.3.2.4s0,.3-.1.9l-2.2,9.8c-.2.8-.2,1.5-.2,2.2s0,.9.2,1.2c.1.3.3.5.5.6.2,0,.3,0,.4,0,.5,0,1-.4,1.7-1.3.7-.8,1.1-1.3,1.4-1.3.1,0,.3,0,.4.1ZM372.4,149.4c0,.2-.5.8-1.4,1.8-.9.9-1.5,1.4-1.8,1.4s-.6-.5-1.3-1.5c-.7-1-1.1-1.6-1-1.8,0-.5.6-1.1,1.4-2,.9-.9,1.4-1.3,1.7-1.3s.7.5,1.4,1.4c.7.9,1,1.6,1,2Z"/>
    <path class="cls-1" d="M392.5,146.8c-.1.6-.3,1-.6,1.3-.3.3-.6.5-1.1.5s-1-.3-1.5-.9c-.5-.6-1.1-.9-1.7-.9s-.7.2-1,.7c-.3.4-.4.9-.4,1.4l-.4,8.2h4.3c.2,0,.4,0,.5.2,0,0,0,.1.1.1,0,.1.1.2.1.3v.9c0,0,0,.2,0,.3,0,0,0,.1-.2.2s-.3.2-.5.2h-4.6l-1.7,14.6c-.2,2.1-.6,3.8-1,4.9-.6,1.6-1.6,2.7-2.8,3.3-.3.1-.6.3-.9.3-.3,0-.5.1-.8.1s-.6,0-.9-.2c-.3-.1-.6-.3-.8-.6-.3-.3-.5-.6-.6-1-.1-.4-.2-.8-.2-1.2s0-.5.2-.5c0,0,.3-.1.7-.2.4,0,.7-.2,1-.4.6-.3,1-.8,1.3-1.4.3-.6.5-1.8.7-3.4l1.7-14.3h-3.4c-.2,0-.4,0-.6-.3,0,0,0-.1,0-.1,0-.1-.1-.2-.1-.3v-.9c0-.1,0-.2.1-.3,0,0,0,0,.1,0,0-.1.2-.2.5-.2h3.6v-.6c.3-2.4.9-4.7,1.9-6.8,1.4-3.1,3.3-4.9,5.7-5.4.2,0,.4,0,.6-.1.2,0,.5,0,.6,0,.8,0,1.3.2,1.7.5.4.4.6.8.6,1.4,0,.2,0,.5-.1.7Z"/>
    <path class="cls-1" d="M403.8,169.5c.1,0,.2.2.2.4,0,.3-.2.8-.5,1.4-.4.6-.8,1.2-1.2,1.7-.7.7-1.5,1.3-2.4,1.7s-1.8.6-2.6.6-.9,0-1.3-.3c-.5-.3-.8-.7-1-1.4-.2-.7-.3-1.5-.3-2.4s0-1,0-1.3,0-.5,0-.6l1.7-8.9c0-.3,0-.6,0-.7s0-.3,0-.4c-.1-.3-.6-.5-1.5-.7-.9-.1-1.3-.4-1.3-.8s.5-.7,1.6-.8c.9,0,1.8,0,2.7-.1.5,0,1.2-.2,1.9-.3.7,0,1.2-.1,1.4-.1s.4,0,.5.1c.1.1.2.3.2.4s0,.3-.1.9l-2.2,9.8c-.2.8-.2,1.5-.2,2.2s0,.9.2,1.2c.1.3.3.5.5.6.2,0,.3,0,.4,0,.5,0,1-.4,1.7-1.3.7-.8,1.1-1.3,1.4-1.3.1,0,.3,0,.4.1ZM403.2,149.4c0,.2-.5.8-1.4,1.8-.9.9-1.5,1.4-1.8,1.4s-.6-.5-1.3-1.5c-.7-1-1.1-1.6-1-1.8,0-.5.6-1.1,1.4-2,.9-.9,1.4-1.3,1.7-1.3s.7.5,1.4,1.4c.7.9,1,1.6,1,2Z"/>
    <path class="cls-1" d="M423.3,160.2c0,.5-.2,1-.6,1.4-.4.4-.9.6-1.4.6s-.8,0-1.1-.3c-.3-.2-.6-.5-.8-.8-.6-1-1.2-1.8-1.7-2.1-.5-.4-1-.6-1.6-.6-1.3,0-2.4.7-3.2,2.2-.9,1.5-1.3,3.3-1.3,5.6s.5,3.6,1.4,4.9c.9,1.3,2.3,1.9,4,1.9s3-.7,4.1-2.2c0-.1.2-.2.4-.3.2,0,.3,0,.4,0,.2,0,.2.2.2.5s0,.2-.1.3c-.7,1.2-1.7,2.1-3.1,2.9-1.4.8-2.8,1.2-4.2,1.2-2.4,0-4.2-.6-5.6-1.8-1.4-1.2-2.1-2.8-2.1-5,0-3.1,1-5.8,2.9-8,2.1-2.4,4.8-3.6,7.9-3.6s3.2.4,4.1,1.1c.8.6,1.2,1.3,1.2,2.2Z"/>
    <path class="cls-1" d="M501.7,151.5c0,.3,0,.5-.1.7,0,.2-.2.2-.5.2s-.6-.3-.8-.8c-.7-1.7-1.1-2.6-1.2-2.8-.4-.4-1.4-.7-3-1-1.6-.2-3.3-.4-5.1-.4s-1.9,0-2.6.1c-.7,0-1.1.2-1.3.4-.4.3-.7,1.3-1,3-.3,1.7-.5,3-.5,4v3.2c0,.3,0,.5.2.6.1.2.3.2.5.2h4.3c.9,0,1.9-.3,2.7-.9.4-.2.8-.8,1.4-1.8.5-.8.9-1.2,1.1-1.2s.2,0,.3.2.2.3.2.5,0,.3,0,.6l-.8,7.7c0,.4,0,.7,0,.8,0,.2-.2.3-.4.3-.4,0-.7-.5-1-1.6-.3-1.1-.7-1.7-1.1-2.1-.9-.6-1.9-.9-3.1-.9h-3c-.6,0-1.1.3-1.5.8-.4.5-.7,1.5-.8,2.9s-.3,3-.3,4.8v1.5c0,.3,0,.6,0,.8s.2.5.4.7c.2.2.4.4.7.6,0,0,.4.2.9.4.2,0,.5.2,1,.2s.7.1.9.2c.2,0,.3.1.4.2.2.1.3.3.3.6s-.2.6-.5.7c-.4.1-.9.2-1.5.2s-1,0-2-.1c-1,0-1.6-.1-2-.1s-1.4,0-2.7,0c-1.3,0-2,0-2,0-1.3,0-2-.1-2.2-.4,0-.1-.1-.2-.1-.4,0-.2.1-.4.4-.6.3-.2.7-.3,1.2-.5.5-.2.9-.6,1.3-1.4.3-.6.4-1.3.5-2l2.3-20.1c0-.1,0-.3,0-.6,0-.5-.2-1-.5-1.3-.3-.3-.9-.6-1.8-.9-.4-.1-.9-.2-1.3-.4-.4-.1-.5-.3-.5-.5,0-.3.2-.5.7-.5s1-.1,1.5-.1,1.5,0,2.7,0,1.9,0,2.1,0h11.6c.8,0,1.5,0,2.3,0,.7,0,1.5,0,2.2-.1.6,0,1,0,1.1,0,.1,0,.2.2.2.5v5.3h0Z"/>
    <path class="cls-1" d="M513.4,169.1c.2,0,.4.3.4.6s0,.6-.3,1.1c0,.2-.3.6-.6,1-.5.9-1.2,1.7-2.2,2.3-1.1.8-2.1,1.2-3.1,1.2s-.8,0-1.2-.2c-.9-.4-1.5-.8-1.9-1.4-.3-.6-.5-1.3-.5-2.2s0-.8.1-1.3.1-.9.1-1.1l2.6-20.5c0-.1,0-.3,0-.6s0-.5-.1-.7c0-.2-.2-.4-.4-.4-.2,0-.5-.1-1.1-.1h-.6c-.4,0-.6,0-.8,0-.2,0-.3-.2-.3-.4,0-.5.5-.8,1.5-1,.9,0,1.6-.2,2.2-.3.6,0,1.2-.2,1.7-.3,1-.2,1.7-.3,2-.3s.3,0,.4.1c.3.3.4.7.3,1.1l-2.8,24.5c0,.4,0,.7.2,1.1s.4.6.7.7c.6.1,1.4-.3,2.1-1.3.8-1,1.3-1.5,1.5-1.4Z"/>
    <path class="cls-1" d="M536.2,170c.2,0,.4.3.4.5s0,.5-.2.9c0,0-.2.4-.5,1-.5.9-1.3,1.6-2.2,2.2-.9.6-1.9.9-2.8.9s-1.4-.4-2-1.2c-.6-.8-.9-1.6-.9-2.5-1,1.2-2,2-2.9,2.6-1.3.8-2.6,1.1-3.9,1.1s-2.8-.6-3.6-1.8c-.9-1.2-1.3-2.7-1.3-4.5s.3-2.6.9-4c.6-1.4,1.3-2.9,2.3-4.3.9-1.2,1.9-2.1,3-2.7,1.2-.7,2.5-1.1,3.9-1.1h.6c.2,0,.5,0,.9.1.4,0,.9.3,1.5.6.6.3,1.1.5,1.4.5s.5,0,.8-.2.5-.4.7-.7l1-1.2c.2-.2.4-.4.6-.6.2-.2.4-.2.5-.1.2,0,.2.3.2.6,0,.2,0,.4,0,.5l-1.9,11.1c0,.2-.1.6-.2,1.1,0,.5-.1.9-.1,1.4s0,1,.2,1.4c.2.4.4.6.9.6.5,0,1.1-.3,1.6-1s1-1.1,1.2-1ZM529.4,160.6c0-1.6-.8-2.4-2.5-2.4s-1.6.3-2.4.9c-.6.5-1.2,1.2-1.8,2.2s-1,2-1.3,3.1-.5,2.3-.5,3.5.2,2.8.7,3.5c.5.7,1.3,1.1,2.4,1.1s2.2-.7,2.8-2c.7-1.6,1.3-3.2,1.8-5.1.5-1.8.8-3.4.8-4.8Z"/>
    <path class="cls-1" d="M557.9,157.1c.5.6.7,1.4.7,2.6,0,1.7-.5,3.7-1.4,6.2-.7,1.9-1.3,3.3-1.8,4-1,1.6-2.2,2.9-3.6,4-1.4,1.1-2.7,1.6-4,1.6s-.9,0-1.2-.2c-1-.4-1.7-1.5-2.1-3.3-.3-1.3-.4-2.3-.2-2.8-1.3-.5-2.2-1-2.6-1.3-1-.9-1.5-2.4-1.5-4.5s.6-3,2-4.5c1.3-1.5,2.7-2.2,4.2-2.2s2.2.4,2.5,1.1c.4.8.5,2.4.5,5s0,2-.2,3.5c-.2,1.6-.2,2.7-.2,3.3s0,1.4.2,1.8c.2.4.4.7.9.8,1.1.3,2.3-.6,3.7-2.7,1.4-2,2.1-4,2.1-6s-.3-1.8-.9-3c-.3-.6-.4-1.2-.4-1.7,0-.8.1-1.3.6-1.7.5-.4,1-.5,1.7-.5.5,0,.9.1,1.1.3ZM544.8,160.7c0-.1,0-.3,0-.4-.1-.1-.4-.1-.9,0-.5.2-.8.5-1.1.9-.3.4-.5.9-.6,1.6-.2.7-.2,1.2-.2,1.7s0,.7,0,1.1c0,.5.3.9.7,1.3.3.3.7.5,1.1.5s.4,0,.5-.2c0,0,.1-.2.1-.4l.5-6.3Z"/>
    <path class="cls-1" d="M577.9,164.7c0,3-.8,5.5-2.5,7.6-1.8,2.2-4.1,3.3-6.9,3.3s-4.2-.8-5.6-2.4c-1.4-1.6-2.1-3.6-2.1-5.9s1-5.2,2.9-7.3c2-2,4.3-3.1,7.1-3.1s4,.8,5.3,2.3c1.2,1.4,1.8,3.3,1.8,5.5ZM573.2,162.7c0-1.3-.2-2.3-.5-3-.4-.9-1.1-1.4-2.2-1.4s-1.5.2-2,.6-1,1-1.4,1.7c-.6,1.2-1,2.6-1.2,4.1s-.4,3.2-.4,4.9.3,2.7.8,3.5c.5.8,1.3,1.2,2.2,1.2s2.2-.8,3-2.3c.6-1.2,1.1-2.6,1.3-4.1.2-1.5.4-3.2.4-5.2Z"/>
    <path class="cls-1" d="M603.6,169.7c.2,0,.4.3.4.5s0,.5-.2.7c0,0-.2.4-.5.9-.5.9-1.4,1.8-2.6,2.6-1.2.8-2.4,1.2-3.6,1.2-.9,0-1.4-.4-1.8-.9s-.5-1.3-.5-2.1v-.5c0-.2,0-.4,0-.5l.4-4.6-1.9,3.3c-.9,1.6-1.9,2.8-3.2,3.8-1.4,1.1-3,1.6-4.6,1.6s-1.6-.3-2-1c-.3-.5-.5-1.2-.5-2.1s0-.8,0-1.1c0-.3,0-.6.1-.8l1.2-6.8c0-.3.1-.7.2-1.2,0-.5.1-.9.1-1,0-.4,0-.8-.2-1-.1-.2-.3-.4-.6-.4-.6,0-1.1.4-1.6,1.4-.5,1-1,1.5-1.3,1.3-.3,0-.4-.3-.4-.7s.1-.9.4-1.5c.2-.4.4-.9.7-1.3.6-.9,1.4-1.6,2.4-2.2,1-.6,1.9-.9,2.7-.9s.3,0,.5,0c.8.2,1.4.7,1.7,1.5.3.6.4,1.2.4,2s0,.7,0,.9l-1.2,7.3c0,.3,0,.7-.1,1.1s0,.8,0,1.1c0,.5,0,.9.2,1.2.1.3.3.4.6.4.9,0,2-.9,3.3-2.7,1.4-2,2.6-4.4,3.7-7.1.3-.7.6-1.6.9-2.8,0-.4.2-.9.4-1.6l.2-.4c.1-.2.3-.3.5-.3h3.5c0,0,.2,0,.2,0,0,0,0,0,.1.1,0,0,0,.3,0,.5l-2.1,10.4c0,.4-.1.8-.2,1.2,0,.4,0,.6,0,.9,0,.5,0,1,.2,1.3.1.3.3.5.6.5.6,0,1.2-.4,1.9-1.2.7-.8,1.2-1.2,1.4-1Z"/>
    <path class="cls-1" d="M623.1,158.9l-.7,2.5c0,.4-.3.6-.6.6s-.2,0-.4-.1c-.1,0-.2-.2-.3-.3-.8-1-1.2-1.5-1.3-1.5-.3-.3-.5-.4-.7-.4-.7,0-1.3.7-1.9,2.2-.5,1.2-.9,2.6-1.2,4.3l-1.4,8.4c0,.2,0,.3-.2.5-.1.1-.2.2-.3.2h-3.7c0,0-.2,0-.2,0,0,0-.1-.1-.1-.1,0,0,0-.1,0-.2v-.3l1.5-9.7c0-.4.1-.9.1-1.3,0-.8,0-1.4-.3-2-.2-.5-.5-.8-1-.9-.5,0-1.1.5-1.7,1.7-.3.6-.5.8-.8.7-.4-.2-.5-.5-.5-.9s0-.7.2-1.1c.2-.4.3-.8.5-1.2.5-1,1.2-1.7,2-2.3s1.6-.9,2.5-.9,1,.3,1.4.9c.2.4.4,1,.6,1.8l.4,2.2.8-1.3c.4-.7,1.1-1.4,2-2.1,1.3-1,2.5-1.5,3.7-1.5s1,.1,1.3.4c.2.3.4.6.4,1,0,.3,0,.5-.1.7Z"/>
    <path class="cls-1" d="M638.3,158.9c.1.2.2.5.2.7,0,.5-.2.9-.5,1.3-.3.4-.7.6-1.2.6s-.8-.1-1.2-.4c-.2-.2-.5-.6-.9-1.4-.4-.8-.8-1.2-1.2-1.4-.4-.2-.8-.2-1.1-.2-.6,0-1,.2-1.4.5-.4.3-.5.8-.5,1.5s0,.5,0,.7c0,.2.2.5.4.8.2.2.5.4.9.7l3,2.3c.4.3.7.6,1,.8.3.3.5.6.7.9.4.6.6,1.2.8,1.8.2.6.3,1.2.3,1.8s-.1,1.4-.4,2c-.3.6-.7,1.2-1.3,1.7-.8.7-1.6,1.2-2.5,1.5-.9.3-1.9.4-3.1.4s-2.9-.3-4-.9c-1.3-.7-2-1.7-2-2.9,0-.6.3-1.1.6-1.4.4-.3.8-.5,1.3-.5s1.1.2,1.3.6c.1.2.4.8.7,1.8.5,1.4,1.3,2.1,2.3,2.1s1.8-.3,2.4-.8c.6-.5.9-1.2.9-2s-.2-1.1-.5-1.7c-.3-.6-.8-1.1-1.3-1.6l-3.4-2.8c-1.3-1.1-2-2.3-2-3.7s.4-2.1,1.2-3c.8-.9,1.9-1.5,3.2-1.8.8-.2,1.6-.3,2.3-.3,1.1,0,2.1.2,3,.5.9.4,1.5.9,1.8,1.6Z"/>
  </g>
</svg>