<?xml version="1.0" encoding="UTF-8"?>
<svg id="logo" xmlns="http://www.w3.org/2000/svg" version="1.1" viewBox="0 0 1183.5 871.7">
  <defs>
    <style>
      .cls-1 {
        fill: #4886f3;
        stroke-width: 0px;
      }
    </style>
  </defs>
  <path class="cls-1" d="M0,584.3h25.4v-131.6H0v-20h75.2v20h-25.1v131.6h25.1v20H0v-20ZM140.9,598.7v-40h22.5v24.5c8.5,2.3,21.4,4.5,34.9,4.5,23.7,0,40.6-7.9,40.6-25.9,0-44-95.2-23.4-95.2-85.1s25.1-47.3,61.4-47.3,38.3,3.9,52.4,8.7v39.5h-22.8v-24.8c-7.3-1.7-18.3-3.4-28.7-3.4-23.4,0-38.3,9-38.3,25.1,0,41.1,95.2,22,95.2,85.7s-27.6,47.6-63.1,47.6c-20.9,0-42.8-4.5-58.9-9ZM327.8,584.3h25.4v-131.6h-25.4v-20h78.9v20h-28.7v131.6h66.5v-30.7h23.1v50.7h-139.8v-20ZM514.4,584.3h22l53.3-131.6h-24.5v-20h60.3l61.4,151.6h22.3v20h-73.5v-20h25.6l-13.2-33h-74.1l-13,33h25.4v20h-71.9v-20ZM640.4,531.3l-29.3-74.7-29.3,74.7h58.6ZM759.9,584.3h25.4v-131.6h-25.4v-20h50.7l92.7,131.6v-111.6h-25.1v-20h73.8v20h-25.1v151.6h-22.3l-96.1-135.5v115.5h25.1v20h-73.8v-20ZM1013,584.3h25.4v-131.6h-25.4v-20h79.5c55.8,0,91,31.6,91,85.9s-35.2,85.7-91,85.7h-79.5v-20ZM1092.5,584.3c42,0,65.7-24.2,65.7-65.7s-23.7-65.9-65.7-65.9h-29.3v131.6s29.3,0,29.3,0Z"/>
  <path class="cls-1" d="M0,848.3h25.4v-131.6H0v-20h77.8c41.4,0,68.5,21.1,68.5,54.4s-27,54.4-68.5,54.4h-27.6v42.8h30.4v20H0v-20H0ZM50.2,785.5h28.2c30.4,0,42.8-15.2,42.8-34.4s-12.4-34.4-42.8-34.4h-28.2v68.8ZM206,782.6c0-51.8,35.8-89.3,88.2-89.3s88.2,37.5,88.2,89.3-35.8,89.1-88.2,89.1c-52.4,0-88.2-37.2-88.2-89.1ZM357.1,782.6c0-41.7-25.9-68.5-62.8-68.5s-62.6,27-62.6,68.5,25.6,68.2,62.6,68.2,62.8-26.8,62.8-68.2ZM443.4,848.3h25.4v-131.6h-25.4v-20h74.7v20h-24.5v131.6h26.8v20h-76.9v-20ZM504.8,783.2v-1.7l62.3-65.1h-22.3v-19.7h72.1v20h-21.7l-60.6,64.2,58.9,67.4h25.9v20h-41.1l-73.5-85.1ZM676.2,848.3h25.4v-131.6h-25.4v-20h138.9v48.2h-22.8v-28.2h-65.9v55.2h71v20h-71v56.4h66.5v-29h23.1v49h-139.8v-20h0ZM726.9,670.8l45.4-45.1,16.3,20.6-53.8,34.4-7.9-9.9Z"/>
  <path class="cls-1" d="M528.4,1.8c-13.6,12.5-24.4,22.9-35.7,32.8-11.9,10.4-23.6,20.5-13.9,36.8,18.5,6.4,36.8,11.8,54.3,19.1,6.4,2.7,10.9,9.8,16.7,14.4,2.1,1.7,5.3,2.6,8.1,2.9,3.4.3,7-1.3,10.2-.6,23.6,5.4,47.1,11.2,72.3,17.3v15.1c9.8-1.2,18.9-2.3,28-3.5.7,1.4,1.4,2.7,2.2,4.1-8.8,5.9-17.6,11.7-24.7,16.5,9.8,2.1,19,4,28.3,6,1.5.3,3.5,1.2,4.6.6,15.2-8.8,30.5-17.7,45.4-27,8.1-5,15.7-10.9,23-18-25.7,3.4-46.3,24-72.7,25.4-.7-1.2-1.5-2.4-2.2-3.6,6.8-4.6,13.1-10.1,20.4-13.5,23-10.7,46.6-20,69.5-31,13.8-6.6,26.6-15.3,41.6-21.8-2.1,19.9-19.5,30.3-29.3,45.2-10.5,15.9-23.3,30.3-36,46.3,23.8,26.8,48.6,54.8,73.5,82.8-.9,1.5-1.9,3-2.8,4.5-17.7-9-35.1-18.7-53.2-26.8-13.3-6-27.4-10.6-41.4-14.8-22.9-7-45.8-15.8-69.3-18.9-15.1-2-31.4,4.9-47.7,8,6.9,20.7,6.7,20.3-11,27.8-34.6,14.7-69,29.7-103.3,45-14.6,6.5-25.6,16.3-22.3,34.4-24.8,3.6-45-6.4-43.7-16.9-38.2-19.4-77.9-10.1-119.4-9.9,6,8.8,11.1,16.2,17.3,25.2-31.3,5-59.8,3.3-83.3-16-19.1-15.7-41.7-14.9-63.3-19.7-15.4-3.4-30.6-7.9-46-11.4-5.4-1.2-11.9,1-16.9-.9-28.4-11-56.4-22.8-84.6-34.4-1.3-.5-2.2-1.8-3.3-2.6C0,206.9.2,197.6,18.4,185.1c-.2-.8-.2-2.2-.7-2.4-27.4-11.6-19.2-27.4-.5-38.9,18.7-11.5,35.9-25.5,53.9-38.2,56.8-40.1,120.4-59.9,189.6-61.9,24-.7,48.4-1.8,72,1.4,15.9,2.1,27.2-1,41.3-8.2,27.7-14.1,56.7-24.8,88.5-29.8,18.6-2.9,36.6-8.5,55.8-6.7,2.2.2,4.4.6,10.1,1.5ZM243.9,76c-5.4,2.4-10.2,5.7-15.5,6.6-41.7,7.4-80.2,23.4-117.2,43.3-4.8,2.6-10.4,3.8-17.3,6.3-.2,1.7-.5,5.6-1,10.1,2.7-.5,4.5-.6,6.3-1.1,81-23.1,163.4-34.1,247-21.8,48.3,7.1,95.4,21.9,143.5,31.2,22.9,4.4,46.7,5,70.1,5.6,9.8.3,19.8-3.8,29.7-6-19.9-5.8-39.2-7.8-57.2-13.7-30.4-9.8-59.9-22.2-89.9-33.2-60.7-22.3-122.7-34.4-187.6-24.5-3.5.5-7.5-1.9-10.9-2.8Z"/>
</svg>