<?xml version="1.0" encoding="UTF-8"?>
<svg id="Layer_1" data-name="Layer 1" xmlns="http://www.w3.org/2000/svg" viewBox="0 0 89.04 19.89">
  <defs>
    <style>
      .cls-1 {
        fill: #d191de;
      }

      .cls-2 {
        fill: #141319;
      }
    </style>
  </defs>
  <path class="cls-2" d="M0,17.13l2.54-2.97c1.42,1.18,3.23,2,4.86,2,1.84,0,2.75-.71,2.75-1.85,0-1.21-1.12-1.59-2.84-2.3l-2.57-1.06c-2.02-.8-3.96-2.44-3.96-5.24C.78,2.53,3.68,0,7.79,0c2.27,0,4.65.88,6.34,2.53l-2.27,2.74c-1.3-.97-2.51-1.53-4.08-1.53s-2.51.65-2.51,1.74c0,1.18,1.3,1.59,2.99,2.26l2.54,1c2.39.94,3.9,2.5,3.9,5.21,0,3.18-2.72,5.94-7.43,5.94-2.56,0-5.28-.94-7.27-2.76"/>
  <polygon class="cls-2" points="18.07 .36 18.07 19.54 30.3 19.54 30.3 15.89 22.51 15.89 22.51 .36 18.07 .36"/>
  <polygon class="cls-2" points="33.72 .36 33.72 19.54 46.35 19.54 46.35 15.89 38.16 15.89 38.16 11.48 44.87 11.48 44.87 7.86 38.16 7.86 38.16 4.01 46.05 4.01 46.05 .36 33.72 .36"/>
  <path class="cls-2" d="M50.28.36h7.1c4.17,0,7.59,1.41,7.59,5.97,0,2.82-1.39,4.62-3.51,5.53l4.47,7.68h-4.99l-3.78-6.91h-2.44v6.91h-4.44s0-19.18,0-19.18ZM57.01,9.18c2.33,0,3.6-.97,3.6-2.85s-1.27-2.53-3.6-2.53h-2.3v5.38h2.3Z"/>
  <path class="cls-2" d="M68.8.36h6.77c4.32,0,7.83,1.53,7.83,6.18s-3.54,6.5-7.71,6.5h-2.45v6.5h-4.44V.36ZM75.42,9.6c2.45,0,3.63-1.06,3.63-3.06s-1.33-2.74-3.75-2.74h-2.06v5.8h2.18Z"/>
  <path class="cls-1" d="M82.12,16.17c0,1.86,1.55,3.37,3.46,3.37s3.46-1.51,3.46-3.37-1.55-3.37-3.46-3.37c-1.91,0-3.46,1.51-3.46,3.37"/>
</svg>