<svg xmlns="http://www.w3.org/2000/svg" viewBox="0 0 951.74 277.73"><defs><style>.cls-1{fill:#ff5100;fill-rule:evenodd;}.cls-2{fill:#3b3635;}</style></defs><g id="Layer_2" data-name="Layer 2"><g id="Layer_1-2" data-name="Layer 1"><path class="cls-1" d="M881.84,60.63c-2.19-2.29-3.69-5.09-5.35-7.74-1.79-2.89-2.09-6.72-4.79-9-3.68-3-8.64-2.91-13.14-2.37-5.89.7-11,4-14.91,8.34-5.6,6.11-7.46,14.54-6.55,22.66a30.45,30.45,0,0,0,3,10.17C831.35,93.06,780.13,148,733.43,148c-16.39,0-16.26-12.76-16.26-16.43,0-28.29,47.38-91.19,52.53-101.44,0,0,6.78-10.13,6.78-19.11,0-8.41-12.82-11-17-11-21.37,0-30.91,11-34.58,14.6-6.39,6.2-52.68,71.84-55.19,123.05,0,0-21.89,9.89-39.73,9.89-6.78,0-26.9-.57-31-13,9.86,0,57-15.34,53.67-44.7C651.85,82.61,642.94,57,613,57c-45.76,0-68.66,29.68-68.66,55a52.94,52.94,0,0,0,5.43,23.72c-1.51.64-24.56,12.14-52.85,11.06-3.79-.14-16.7-.05-16.7-9.26,0-19.31,45.52-45.53,45.52-62.83a15.45,15.45,0,0,0-4.36-11.14c-3.91-3.88-9.78-3.09-14.9-3.59-5.81-.54-28.36,2.52-36.75,2.52-8.85,0-31.9-5.5-35.64-5.5-2.91,0-7.18,2.47-7.18,6.57,0,10,23.33,20.19,25.89,23.26A7.78,7.78,0,0,1,454.4,92c0,13.59-38.55,57.19-50.09,57.19-1.53,0-8.3-1.43-8.3-11,0-12.7,9.41-45.24,9.41-63.39,0-6.9-4.4-17.79-17.15-17.79-19.4,0-42.21,22.77-56,28.59,1.12-11.93,1-21.37-1.8-25-.72-.95-3.11-1.32-5.93-1.32C307.79,59.23,304,71,302.44,75.42c-1.66,4.79-3,40.67-3,40.67-5.14,6.4-27.52,30.3-56.37,30.3-9.77,0-17.34-4.66-15.84-13.65,28.85,0,52.71-21.94,52.71-48.35C280,62.57,260.5,57,241.29,57c-53.82,0-61.85,55.3-61.85,67.69,0,24.19,17.88,51,53.32,51S300,131.58,300,131.58L299.45,148a22.38,22.38,0,0,0,3,11.63c2.1,3.76,5.51,6.75,9,9.25a40.47,40.47,0,0,0,15.37,6.83,1.93,1.93,0,0,0,.42.05,4.35,4.35,0,0,0,3.3-1.51c.9-1.42.12-12,0-15.56-.42-10.54,1.3-47.07,1.83-53.45,8.35-11.77,18.66-14.53,24.77-14.53,7.69,0,8,7.3,7.48,12.16-.36,3.12-3.66,34.63-4.09,47.56-.12,3.57,3,25.33,28.52,25.33,16.63,0,46.75-29.87,50.71-34.07-1.39,8.94-4.89,34.07,24.48,34.07,37.64,0,82.08-23.78,91.8-29.66,0,0,17.07,29.66,58.84,29.66,29,0,58.22-21.23,58.22-21.23s8.53,21.23,34.59,21.23c69,0,129.1-71.14,140.19-82.94a77.34,77.34,0,0,0,17.92,10.76c6.09,2.62,41.47,9.92,41.47,25.05s-14.8,19.71-26.55,19.71-19.81-6.22-22.09-9a4,4,0,0,0-3,0c-1.86.75-2.05,3-2.4,4.75-.59,2.67.41,5.25,1.19,7.8,1.93,6.11,6.45,10.82,11.34,14.86,9.46,7.9,22,9,34,9,50.93,0,52-42.3,52-47.15C951.74,80.86,887,66,881.84,60.63Zm-666,55.45c-1.73-15,8.7-31.69,23.51-31.69,6.74,0,10.52,1.89,10.52,8.24C249.91,102.67,240.3,119.23,215.88,116.08Zm363.37,6.52a24.75,24.75,0,0,1-2.37-10.74c0-16.61,16.17-22.15,22.2-22.15,1.72,0,12.89.38,12.89,6.93C612,106.69,599.6,122.6,579.25,122.6Z"/><path class="cls-1" d="M836,22C836-1,815.76,0,814.85,0a19.75,19.75,0,0,0-14,5.55,20,20,0,0,0-5.59,14.25c0,15.61,8.46,19.1,11.55,20.34,0,0-1.08,2.06-5.37,4.21-2.34,1.17-8.51,2.6-8.51,9a4.91,4.91,0,0,0,5,4.85C819.56,58.22,836,38.25,836,22Z"/><path class="cls-1" d="M113.88,16.45c-6,4.88-13.1,8.26-19.1,13.12A163.53,163.53,0,0,0,69.11,56.42c-6.53,8.42-21.53,27.14-21.53,41.49,0,11.07,3.22,15.23,14.37,15.23,18,0,23.17-18.09,24.46-24.47.75-3.74-2.67-27.47,17.93-27.47,4.7,0,9.78.56,13.13,4.18,2.37,2.58,3.61,4.63,3.28,9.5-.21,2.68-1.83,4.8-2.71,7.21-1.49,4.09-3.58,8.13-3.58,12.54,0,8.24,3.53,18.32,13.69,18.32,11.25,0,20.29-11.31,23.31-15.94,11-16.86,9.22-55.1,9-66.84-.14-5.58-.33-11.13-.63-16.72-.13-2.17,2.67-2.08,3.59-.58A88.57,88.57,0,0,1,170,26.58c4.29,11.26,5.08,23.3,6,35.21,1.28,17.8,2.67,54.18-16.13,84.14-5.05,8-21.51,29.9-47.84,29.9-23.18,0-33.59-14.39-37.47-22.15.27.53-3.45,4.64-3.84,5.1a43.87,43.87,0,0,1-8.25,7.5c-8.08,5.62-18.93,8.66-28.68,9.57-7.79.73-16.1-.66-22.25-5.51-6.33-5-9.59-13.06-10.69-21.05a90.7,90.7,0,0,1,3.28-38.57C9.4,93.81,19,78.89,30.31,65.38c12.18-14.54,27.25-26.29,43.6-35.81A178.48,178.48,0,0,1,109.5,13.83C113.91,12.46,117.21,13.8,113.88,16.45Z"/><path class="cls-2" d="M249.48,226.13v50.71H234.1V226.13H215.94V213.52h51.7v12.61Z"/><path class="cls-2" d="M313.29,276.84V251.73H288.88v25.11H273.5V213.52h15.38v24.91h24.41V213.52h15.39v63.32Z"/><path class="cls-2" d="M339,276.84V213.52h36.33v12.61H354.08v12.5h17.47v12.9H354.08v12.71h24.21v12.6Z"/><path class="cls-2" d="M429.9,276.84H406.48V213.52h20.74c9.82,0,18.56,6.45,18.56,16.78,0,3.77-1.89,8.53-5.26,10.42,5.56,1.78,11,8.33,11,16.37C451.53,269.4,441.81,276.84,429.9,276.84Zm-5.06-51.9h-4.57v13h4.57c3.67,0,7-1.89,7-6.45S428.51,224.94,424.84,224.94Zm2.48,24.11h-7.05v16.58h7.05c4.66,0,9.43-2.48,9.43-8.24S432.08,249.05,427.32,249.05Z"/><path class="cls-2" d="M499,276.84l-5.26-14.29H473.56l-5.26,14.29H453.82L478.73,213h10.61l24.91,63.81Zm-13.4-38a58.61,58.61,0,0,1-1.88-5.85h-.2a52.09,52.09,0,0,1-1.79,5.85l-4.26,11.71h12.4Z"/><path class="cls-2" d="M554.35,276.84,535.89,251h-.1v25.8H520.4V213.52h15.39v26.9h.1L555,213.52h16.67l-22.13,31.17,23.13,32.15Z"/><path class="cls-2" d="M578.46,276.84V213.52h36.32v12.61H593.55v12.5H611v12.9H593.55v12.71h24.21v12.6Z"/><path class="cls-2" d="M659.34,276.84l-17-24.91H638.3v24.91H623.52V213.52h23.12c10.82,0,20.44,7.25,20.44,19.16a17.55,17.55,0,0,1-9.72,15.88l20.14,28.28Zm-15-50.91H638.3v14.19h6.06c4,0,7.94-2.18,7.94-7.05S648.33,225.93,644.36,225.93Z"/><path class="cls-2" d="M697.65,277.73c-7.15,0-14-2.08-17.77-4.36L678.39,259a33.51,33.51,0,0,0,18.27,6c5.45,0,8.93-2.48,8.93-6.35,0-3.67-2.29-5.76-8.14-7.34C685,248,679.29,241.11,679.29,231.49c0-10.52,7.84-19,21.53-19,7.25,0,13.3,2.09,15.88,3.57l-2.78,12.41a27.25,27.25,0,0,0-12-3.28c-5.36,0-7.84,2.39-7.84,5.46s2.67,4.87,7.54,6.26c12.11,3.37,19.35,9.62,19.35,20.84C721,270,713,277.73,697.65,277.73Z"/></g></g></svg>