<svg xmlns="http://www.w3.org/2000/svg" viewBox="0 0 283.46 283.46"><g id="Ebene_2" data-name="Ebene 2"><g id="Ebene_1-2" data-name="Ebene 1"><rect width="283.46" height="283.46"/><polygon points="77.24 237.54 44.77 216.36 34.25 216.36 34.26 252.77 46.31 252.77 46.31 232.59 78.78 253.7 89.3 253.7 89.3 216.36 77.24 216.36 77.24 237.54" style="fill:#fff"/><polygon points="77.23 187.97 67.58 187.96 67.57 167.55 55.51 167.55 55.51 187.97 46.31 187.96 46.31 164.08 34.25 164.08 34.26 201.49 89.3 201.49 89.3 164.08 77.24 164.08 77.23 187.97" style="fill:#fff"/><rect x="34.26" y="132.37" width="55.04" height="13.53" style="fill:#fff"/><polygon points="46.31 117.51 46.31 103.98 89.3 103.98 89.3 90.45 46.31 90.45 46.31 76.92 34.25 76.92 34.26 117.51 46.31 117.51" style="fill:#fff"/><polygon points="151.79 219.74 139.73 219.74 139.73 240.15 130.07 240.15 130.07 216.25 118.01 216.25 118 253.67 173.05 253.67 173.05 240.15 151.79 240.15 151.79 219.74" style="fill:#fff"/><path d="M168.1,166a18.34,18.34,0,0,0-6.3-4.53,19.8,19.8,0,0,0-8.08-1.62H118v13.53h35.41a8.27,8.27,0,0,1,5.91,2,7.11,7.11,0,0,1,2.12,5.41,6.81,6.81,0,0,1-2.12,5.33,8.43,8.43,0,0,1-5.92,1.94H118v13.52h35.71A20.12,20.12,0,0,0,161.8,200a18,18,0,0,0,6.3-4.48,20.66,20.66,0,0,0,4-6.69,24.15,24.15,0,0,0,0-16.12A20.19,20.19,0,0,0,168.1,166Z" style="fill:#fff"/><rect x="101.46" y="184.23" width="11.21" height="10.36" style="fill:#fff"/><rect x="101.46" y="166.76" width="11.21" height="10.36" style="fill:#fff"/><path d="M173.05,132.31H152.56v-4.57L173.05,118V102.31l-23,11.91a16.79,16.79,0,0,0-5.53-6.38,14.92,14.92,0,0,0-8.85-2.59,18.11,18.11,0,0,0-6.61,1.24,17.07,17.07,0,0,0-5.72,3.63,16.74,16.74,0,0,0-3.94,5.95,21,21,0,0,0-1.43,8v21.8h55Zm-42.9,0v-7.66a5.69,5.69,0,0,1,1.66-4.29,5.5,5.5,0,0,1,3.91-1.58,5.42,5.42,0,0,1,3.9,1.58,5.61,5.61,0,0,1,1.66,4.29v7.66Z" style="fill:#fff"/><path d="M232,212.55a15,15,0,0,0-4.76.69,12.44,12.44,0,0,0-3.44,1.74,11.41,11.41,0,0,0-2.2,2.09,26.69,26.69,0,0,0-1.59,2.28,17.09,17.09,0,0,0-4.13-4.1,11.25,11.25,0,0,0-6.77-1.93q-7.26,0-11.59,4.56t-4.33,13v22.81h55v-24q0-7.59-4.29-12.37T232,212.55Zm-26.68,27.6v-8.43a4.69,4.69,0,0,1,1.32-3.71,4.91,4.91,0,0,1,6.34,0,4.73,4.73,0,0,1,1.31,3.71v8.43Zm30.77,0h-9.66V231a4.68,4.68,0,0,1,1.39-3.75,5,5,0,0,1,3.4-1.2,5.26,5.26,0,0,1,3.44,1.2,4.6,4.6,0,0,1,1.43,3.75Z" style="fill:#fff"/><path d="M248.21,173.75v-15.7l-23,11.91a16.86,16.86,0,0,0-5.53-6.38,14.92,14.92,0,0,0-8.85-2.59,18.32,18.32,0,0,0-6.61,1.24,17.29,17.29,0,0,0-5.72,3.63,16.69,16.69,0,0,0-3.94,6,21,21,0,0,0-1.43,8v21.8h55V188.05H227.72v-4.56Zm-31.77,14.3H205.3V180.4a5.63,5.63,0,0,1,1.67-4.29,5.58,5.58,0,0,1,7.8,0,5.63,5.63,0,0,1,1.67,4.29Z" style="fill:#fff"/><path d="M243,112.32a16.35,16.35,0,0,0-8.43-4.6,72,72,0,0,0-13.38-1,71.91,71.91,0,0,0-13.37,1,16.32,16.32,0,0,0-8.42,4.6,21,21,0,0,0-4.64,6.81,24.52,24.52,0,0,0,0,17.16,20.92,20.92,0,0,0,4.64,6.8,16.25,16.25,0,0,0,8.42,4.6,70.9,70.9,0,0,0,13.37,1,71,71,0,0,0,13.38-1,16.28,16.28,0,0,0,8.43-4.6,21.23,21.23,0,0,0,4.64-6.8,24.67,24.67,0,0,0,0-17.16A21,21,0,0,0,243,112.32Zm-6.57,18.56a6.57,6.57,0,0,1-1.78,2.24,7.48,7.48,0,0,1-1.47.89,9.46,9.46,0,0,1-2.2.58c-1,.15-2.21.28-3.75.38s-3.56.16-6,.16-4.51,0-6.11-.16-2.86-.23-3.79-.38a9.32,9.32,0,0,1-2.16-.58,6.94,6.94,0,0,1-1.47-.89,6.15,6.15,0,0,1-1.74-2.24,7.3,7.3,0,0,1-.66-3.17,7.58,7.58,0,0,1,.66-3.21,5.41,5.41,0,0,1,1.74-2.2,6.94,6.94,0,0,1,1.47-.89,9.69,9.69,0,0,1,2.2-.62,29.3,29.3,0,0,1,3.79-.39q2.35-.12,6.06-.11c2.48,0,4.5,0,6.07.15a36.44,36.44,0,0,1,3.75.39,8.39,8.39,0,0,1,2.17.58,7,7,0,0,1,1.47.89,6.48,6.48,0,0,1,1.78,2.24,7.63,7.63,0,0,1,0,6.34Z" style="fill:#fff"/><polygon points="205.23 82.23 248.22 82.23 248.21 68.69 205.23 68.69 205.23 55.17 193.17 55.16 193.17 95.76 205.23 95.75 205.23 82.23" style="fill:#fff"/></g></g></svg>